<mxfile host="app.diagrams.net" agent="Mozilla/5.0 (Windows NT 10.0; Win64; x64) AppleWebKit/537.36 (KHTML, like Gecko) Chrome/131.0.0.0 Safari/537.36 Edg/131.0.0.0" version="26.0.4">
  <diagram name="Page-1" id="74e2e168-ea6b-b213-b513-2b3c1d86103e">
    <mxGraphModel dx="847" dy="495" grid="1" gridSize="10" guides="1" tooltips="1" connect="1" arrows="1" fold="1" page="1" pageScale="1" pageWidth="1100" pageHeight="850" background="none" math="0" shadow="0">
      <root>
        <mxCell id="0" />
        <mxCell id="1" parent="0" />
        <mxCell id="77e6c97f196da883-1" value="Pool" style="swimlane;html=1;childLayout=stackLayout;startSize=20;rounded=0;shadow=0;labelBackgroundColor=none;strokeWidth=1;fontFamily=Verdana;fontSize=8;align=left;" parent="1" vertex="1">
          <mxGeometry x="70" y="40" width="1160.25" height="750" as="geometry" />
        </mxCell>
        <mxCell id="77e6c97f196da883-2" value="问题渠道" style="swimlane;html=1;startSize=20;" parent="77e6c97f196da883-1" vertex="1">
          <mxGeometry y="20" width="160" height="730" as="geometry" />
        </mxCell>
        <mxCell id="77e6c97f196da883-8" value="微信群聊" style="rounded=1;whiteSpace=wrap;html=1;shadow=0;labelBackgroundColor=none;strokeWidth=1;fontFamily=Verdana;fontSize=8;align=center;" parent="77e6c97f196da883-2" vertex="1">
          <mxGeometry x="20" y="65" width="100" height="60" as="geometry" />
        </mxCell>
        <mxCell id="77e6c97f196da883-9" value="" style="rounded=1;whiteSpace=wrap;html=1;shadow=0;labelBackgroundColor=none;strokeWidth=1;fontFamily=Verdana;fontSize=8;align=center;" parent="77e6c97f196da883-2" vertex="1">
          <mxGeometry x="20" y="155" width="100" height="60" as="geometry" />
        </mxCell>
        <mxCell id="77e6c97f196da883-10" value="" style="rounded=1;whiteSpace=wrap;html=1;shadow=0;labelBackgroundColor=none;strokeWidth=1;fontFamily=Verdana;fontSize=8;align=center;" parent="77e6c97f196da883-2" vertex="1">
          <mxGeometry x="30" y="560" width="100" height="60" as="geometry" />
        </mxCell>
        <mxCell id="77e6c97f196da883-26" style="edgeStyle=orthogonalEdgeStyle;rounded=1;html=1;labelBackgroundColor=none;startArrow=none;startFill=0;startSize=5;endArrow=classicThin;endFill=1;endSize=5;jettySize=auto;orthogonalLoop=1;strokeWidth=1;fontFamily=Verdana;fontSize=8" parent="77e6c97f196da883-1" source="77e6c97f196da883-8" target="77e6c97f196da883-11" edge="1">
          <mxGeometry relative="1" as="geometry" />
        </mxCell>
        <mxCell id="77e6c97f196da883-28" style="edgeStyle=orthogonalEdgeStyle;rounded=1;html=1;labelBackgroundColor=none;startArrow=none;startFill=0;startSize=5;endArrow=classicThin;endFill=1;endSize=5;jettySize=auto;orthogonalLoop=1;strokeWidth=1;fontFamily=Verdana;fontSize=8" parent="77e6c97f196da883-1" source="77e6c97f196da883-9" target="77e6c97f196da883-12" edge="1">
          <mxGeometry relative="1" as="geometry" />
        </mxCell>
        <mxCell id="77e6c97f196da883-30" style="edgeStyle=orthogonalEdgeStyle;rounded=1;html=1;labelBackgroundColor=none;startArrow=none;startFill=0;startSize=5;endArrow=classicThin;endFill=1;endSize=5;jettySize=auto;orthogonalLoop=1;strokeWidth=1;fontFamily=Verdana;fontSize=8" parent="77e6c97f196da883-1" source="77e6c97f196da883-13" target="77e6c97f196da883-9" edge="1">
          <mxGeometry relative="1" as="geometry" />
        </mxCell>
        <mxCell id="77e6c97f196da883-31" style="edgeStyle=orthogonalEdgeStyle;rounded=1;html=1;labelBackgroundColor=none;startArrow=none;startFill=0;startSize=5;endArrow=classicThin;endFill=1;endSize=5;jettySize=auto;orthogonalLoop=1;strokeWidth=1;fontFamily=Verdana;fontSize=8" parent="77e6c97f196da883-1" source="77e6c97f196da883-16" target="77e6c97f196da883-9" edge="1">
          <mxGeometry relative="1" as="geometry" />
        </mxCell>
        <mxCell id="77e6c97f196da883-32" style="edgeStyle=orthogonalEdgeStyle;rounded=1;html=1;labelBackgroundColor=none;startArrow=none;startFill=0;startSize=5;endArrow=classicThin;endFill=1;endSize=5;jettySize=auto;orthogonalLoop=1;strokeWidth=1;fontFamily=Verdana;fontSize=8" parent="77e6c97f196da883-1" source="77e6c97f196da883-20" target="77e6c97f196da883-9" edge="1">
          <mxGeometry relative="1" as="geometry">
            <Array as="points">
              <mxPoint x="20" y="690" />
              <mxPoint x="20" y="370" />
              <mxPoint x="70" y="370" />
            </Array>
          </mxGeometry>
        </mxCell>
        <mxCell id="77e6c97f196da883-33" style="edgeStyle=orthogonalEdgeStyle;rounded=1;html=1;labelBackgroundColor=none;startArrow=none;startFill=0;startSize=5;endArrow=classicThin;endFill=1;endSize=5;jettySize=auto;orthogonalLoop=1;strokeWidth=1;fontFamily=Verdana;fontSize=8" parent="77e6c97f196da883-1" source="77e6c97f196da883-13" target="77e6c97f196da883-15" edge="1">
          <mxGeometry relative="1" as="geometry" />
        </mxCell>
        <mxCell id="77e6c97f196da883-39" style="edgeStyle=orthogonalEdgeStyle;rounded=1;html=1;labelBackgroundColor=none;startArrow=none;startFill=0;startSize=5;endArrow=classicThin;endFill=1;endSize=5;jettySize=auto;orthogonalLoop=1;strokeWidth=1;fontFamily=Verdana;fontSize=8" parent="77e6c97f196da883-1" source="77e6c97f196da883-20" target="77e6c97f196da883-23" edge="1">
          <mxGeometry relative="1" as="geometry" />
        </mxCell>
        <mxCell id="77e6c97f196da883-40" style="edgeStyle=orthogonalEdgeStyle;rounded=1;html=1;labelBackgroundColor=none;startArrow=none;startFill=0;startSize=5;endArrow=classicThin;endFill=1;endSize=5;jettySize=auto;orthogonalLoop=1;strokeWidth=1;fontFamily=Verdana;fontSize=8" parent="77e6c97f196da883-1" source="77e6c97f196da883-23" target="77e6c97f196da883-24" edge="1">
          <mxGeometry relative="1" as="geometry" />
        </mxCell>
        <mxCell id="107ba76e4e335f99-1" style="edgeStyle=orthogonalEdgeStyle;rounded=1;html=1;labelBackgroundColor=none;startArrow=none;startFill=0;startSize=5;endArrow=classicThin;endFill=1;endSize=5;jettySize=auto;orthogonalLoop=1;strokeWidth=1;fontFamily=Verdana;fontSize=8" parent="77e6c97f196da883-1" source="77e6c97f196da883-17" target="77e6c97f196da883-18" edge="1">
          <mxGeometry relative="1" as="geometry" />
        </mxCell>
        <mxCell id="107ba76e4e335f99-2" style="edgeStyle=orthogonalEdgeStyle;rounded=1;html=1;labelBackgroundColor=none;startArrow=none;startFill=0;startSize=5;endArrow=classicThin;endFill=1;endSize=5;jettySize=auto;orthogonalLoop=1;strokeWidth=1;fontFamily=Verdana;fontSize=8" parent="77e6c97f196da883-1" source="77e6c97f196da883-22" target="77e6c97f196da883-14" edge="1">
          <mxGeometry relative="1" as="geometry">
            <Array as="points">
              <mxPoint x="660" y="610" />
              <mxPoint x="660" y="550" />
              <mxPoint x="400" y="550" />
            </Array>
          </mxGeometry>
        </mxCell>
        <mxCell id="107ba76e4e335f99-3" style="edgeStyle=orthogonalEdgeStyle;rounded=1;html=1;labelBackgroundColor=none;startArrow=none;startFill=0;startSize=5;endArrow=classicThin;endFill=1;endSize=5;jettySize=auto;orthogonalLoop=1;strokeColor=#000000;strokeWidth=1;fontFamily=Verdana;fontSize=8;fontColor=#000000;" parent="77e6c97f196da883-1" source="77e6c97f196da883-22" target="77e6c97f196da883-19" edge="1">
          <mxGeometry relative="1" as="geometry" />
        </mxCell>
        <mxCell id="107ba76e4e335f99-4" style="edgeStyle=orthogonalEdgeStyle;rounded=1;html=1;labelBackgroundColor=none;startArrow=none;startFill=0;startSize=5;endArrow=classicThin;endFill=1;endSize=5;jettySize=auto;orthogonalLoop=1;strokeWidth=1;fontFamily=Verdana;fontSize=8" parent="77e6c97f196da883-1" source="77e6c97f196da883-22" target="77e6c97f196da883-10" edge="1">
          <mxGeometry relative="1" as="geometry">
            <Array as="points">
              <mxPoint x="660" y="610" />
              <mxPoint x="660" y="550" />
              <mxPoint x="80" y="550" />
            </Array>
          </mxGeometry>
        </mxCell>
        <mxCell id="107ba76e4e335f99-5" style="edgeStyle=orthogonalEdgeStyle;rounded=1;html=1;labelBackgroundColor=none;startArrow=none;startFill=0;startSize=5;endArrow=classicThin;endFill=1;endSize=5;jettySize=auto;orthogonalLoop=1;strokeWidth=1;fontFamily=Verdana;fontSize=8" parent="77e6c97f196da883-1" source="77e6c97f196da883-10" target="77e6c97f196da883-19" edge="1">
          <mxGeometry relative="1" as="geometry">
            <Array as="points">
              <mxPoint x="80" y="650" />
              <mxPoint x="490" y="650" />
              <mxPoint x="490" y="610" />
            </Array>
          </mxGeometry>
        </mxCell>
        <mxCell id="107ba76e4e335f99-6" style="edgeStyle=orthogonalEdgeStyle;rounded=1;html=1;labelBackgroundColor=none;startArrow=none;startFill=0;startSize=5;endArrow=classicThin;endFill=1;endSize=5;jettySize=auto;orthogonalLoop=1;strokeWidth=1;fontFamily=Verdana;fontSize=8" parent="77e6c97f196da883-1" source="77e6c97f196da883-14" target="77e6c97f196da883-19" edge="1">
          <mxGeometry relative="1" as="geometry" />
        </mxCell>
        <mxCell id="77e6c97f196da883-3" value="客户提问场景" style="swimlane;html=1;startSize=20;" parent="77e6c97f196da883-1" vertex="1">
          <mxGeometry x="160" y="20" width="160" height="730" as="geometry" />
        </mxCell>
        <mxCell id="77e6c97f196da883-11" value="操作问题" style="whiteSpace=wrap;html=1;fontSize=8;fontFamily=Verdana;align=center;rounded=1;shadow=0;labelBackgroundColor=none;strokeWidth=1;" parent="77e6c97f196da883-3" vertex="1">
          <mxGeometry x="20" y="65" width="130" height="60" as="geometry" />
        </mxCell>
        <mxCell id="77e6c97f196da883-4" value="客户提问举例" style="swimlane;html=1;startSize=20;" parent="77e6c97f196da883-1" vertex="1">
          <mxGeometry x="320" y="20" width="195" height="730" as="geometry" />
        </mxCell>
        <mxCell id="77e6c97f196da883-12" value="" style="rounded=1;whiteSpace=wrap;html=1;shadow=0;labelBackgroundColor=none;strokeWidth=1;fontFamily=Verdana;fontSize=8;align=center;" parent="77e6c97f196da883-4" vertex="1">
          <mxGeometry x="30" y="155" width="100" height="60" as="geometry" />
        </mxCell>
        <mxCell id="77e6c97f196da883-13" value="" style="rhombus;whiteSpace=wrap;html=1;rounded=0;shadow=0;labelBackgroundColor=none;strokeWidth=1;fontFamily=Verdana;fontSize=8;align=center;" parent="77e6c97f196da883-4" vertex="1">
          <mxGeometry x="40" y="240" width="80" height="60" as="geometry" />
        </mxCell>
        <mxCell id="77e6c97f196da883-14" value="" style="rounded=1;whiteSpace=wrap;html=1;shadow=0;labelBackgroundColor=none;strokeWidth=1;fontFamily=Verdana;fontSize=8;align=center;" parent="77e6c97f196da883-4" vertex="1">
          <mxGeometry x="30" y="560" width="100" height="60" as="geometry" />
        </mxCell>
        <mxCell id="77e6c97f196da883-29" style="edgeStyle=orthogonalEdgeStyle;rounded=1;html=1;labelBackgroundColor=none;startArrow=none;startFill=0;startSize=5;endArrow=classicThin;endFill=1;endSize=5;jettySize=auto;orthogonalLoop=1;strokeWidth=1;fontFamily=Verdana;fontSize=8" parent="77e6c97f196da883-4" source="77e6c97f196da883-12" target="77e6c97f196da883-13" edge="1">
          <mxGeometry relative="1" as="geometry" />
        </mxCell>
        <mxCell id="bgTZv6M7OsNh2IvBG2EK-1" value="举例:&lt;br&gt;客户提问1：某某功能在哪里&lt;br&gt;客户提问2：在哪里查看某某信息&lt;br&gt;客户提问3：后台有没有某某功能&lt;br&gt;..." style="whiteSpace=wrap;html=1;fontSize=8;fontFamily=Verdana;align=left;rounded=1;shadow=0;labelBackgroundColor=none;strokeWidth=1;" vertex="1" parent="77e6c97f196da883-4">
          <mxGeometry x="37.5" y="65" width="120" height="60" as="geometry" />
        </mxCell>
        <mxCell id="77e6c97f196da883-5" value="问题研判" style="swimlane;html=1;startSize=20;" parent="77e6c97f196da883-1" vertex="1">
          <mxGeometry x="515" y="20" width="162.5" height="730" as="geometry" />
        </mxCell>
        <mxCell id="77e6c97f196da883-15" value="" style="rounded=1;whiteSpace=wrap;html=1;shadow=0;labelBackgroundColor=none;strokeWidth=1;fontFamily=Verdana;fontSize=8;align=center;" parent="77e6c97f196da883-5" vertex="1">
          <mxGeometry x="30" y="240" width="100" height="60" as="geometry" />
        </mxCell>
        <mxCell id="77e6c97f196da883-16" value="" style="rhombus;whiteSpace=wrap;html=1;rounded=0;shadow=0;labelBackgroundColor=none;strokeWidth=1;fontFamily=Verdana;fontSize=8;align=center;" parent="77e6c97f196da883-5" vertex="1">
          <mxGeometry x="40" y="320" width="80" height="60" as="geometry" />
        </mxCell>
        <mxCell id="77e6c97f196da883-17" value="" style="rounded=1;whiteSpace=wrap;html=1;shadow=0;labelBackgroundColor=none;strokeWidth=1;fontFamily=Verdana;fontSize=8;align=center;" parent="77e6c97f196da883-5" vertex="1">
          <mxGeometry x="30" y="400" width="100" height="60" as="geometry" />
        </mxCell>
        <mxCell id="77e6c97f196da883-19" value="" style="rounded=1;whiteSpace=wrap;html=1;shadow=0;labelBackgroundColor=none;strokeWidth=1;fontFamily=Verdana;fontSize=8;align=center;" parent="77e6c97f196da883-5" vertex="1">
          <mxGeometry x="30" y="560" width="100" height="60" as="geometry" />
        </mxCell>
        <mxCell id="77e6c97f196da883-20" value="" style="rhombus;whiteSpace=wrap;html=1;rounded=0;shadow=0;labelBackgroundColor=none;strokeWidth=1;fontFamily=Verdana;fontSize=8;align=center;" parent="77e6c97f196da883-5" vertex="1">
          <mxGeometry x="40" y="640" width="80" height="60" as="geometry" />
        </mxCell>
        <mxCell id="77e6c97f196da883-34" style="edgeStyle=orthogonalEdgeStyle;rounded=1;html=1;labelBackgroundColor=none;startArrow=none;startFill=0;startSize=5;endArrow=classicThin;endFill=1;endSize=5;jettySize=auto;orthogonalLoop=1;strokeColor=#000000;strokeWidth=1;fontFamily=Verdana;fontSize=8;fontColor=#000000;" parent="77e6c97f196da883-5" source="77e6c97f196da883-15" target="77e6c97f196da883-16" edge="1">
          <mxGeometry relative="1" as="geometry" />
        </mxCell>
        <mxCell id="77e6c97f196da883-35" style="edgeStyle=orthogonalEdgeStyle;rounded=1;html=1;labelBackgroundColor=none;startArrow=none;startFill=0;startSize=5;endArrow=classicThin;endFill=1;endSize=5;jettySize=auto;orthogonalLoop=1;strokeWidth=1;fontFamily=Verdana;fontSize=8" parent="77e6c97f196da883-5" source="77e6c97f196da883-16" target="77e6c97f196da883-17" edge="1">
          <mxGeometry relative="1" as="geometry" />
        </mxCell>
        <mxCell id="77e6c97f196da883-36" style="edgeStyle=orthogonalEdgeStyle;rounded=1;html=1;labelBackgroundColor=none;startArrow=none;startFill=0;startSize=5;endArrow=classicThin;endFill=1;endSize=5;jettySize=auto;orthogonalLoop=1;strokeWidth=1;fontFamily=Verdana;fontSize=8" parent="77e6c97f196da883-5" source="77e6c97f196da883-19" target="77e6c97f196da883-20" edge="1">
          <mxGeometry relative="1" as="geometry" />
        </mxCell>
        <mxCell id="bgTZv6M7OsNh2IvBG2EK-3" value="&lt;div data-mind-map-text=&quot;[{&amp;quot;paragraphProps&amp;quot;:{&amp;quot;type&amp;quot;:&amp;quot;paragraph&amp;quot;,&amp;quot;textAlign&amp;quot;:0,&amp;quot;lineSpacing&amp;quot;:1.4},&amp;quot;isComplete&amp;quot;:true,&amp;quot;textProps&amp;quot;:[{&amp;quot;type&amp;quot;:&amp;quot;text&amp;quot;,&amp;quot;fontFamily&amp;quot;:&amp;quot;\&amp;quot;Helvetica Neue\&amp;quot;, Helvetica, \&amp;quot;PingFang SC\&amp;quot;, \&amp;quot;Microsoft YaHei\&amp;quot;, \&amp;quot;Source Han Sans SC\&amp;quot;, \&amp;quot;Noto Sans CJK SC\&amp;quot;, \&amp;quot;WenQuanYi Micro Hei\&amp;quot;, sans-serif&amp;quot;,&amp;quot;text&amp;quot;:&amp;quot;属于客户对于&amp;quot;,&amp;quot;color&amp;quot;:&amp;quot;#630703&amp;quot;,&amp;quot;fontWeight&amp;quot;:400,&amp;quot;fontSize&amp;quot;:24,&amp;quot;italic&amp;quot;:false,&amp;quot;underline&amp;quot;:false,&amp;quot;strike&amp;quot;:false},{&amp;quot;type&amp;quot;:&amp;quot;text&amp;quot;,&amp;quot;fontFamily&amp;quot;:&amp;quot;\&amp;quot;Helvetica Neue\&amp;quot;, Helvetica, \&amp;quot;PingFang SC\&amp;quot;, \&amp;quot;Microsoft YaHei\&amp;quot;, \&amp;quot;Source Han Sans SC\&amp;quot;, \&amp;quot;Noto Sans CJK SC\&amp;quot;, \&amp;quot;WenQuanYi Micro Hei\&amp;quot;, sans-serif&amp;quot;,&amp;quot;fontWeight&amp;quot;:700,&amp;quot;text&amp;quot;:&amp;quot;操作方面&amp;quot;,&amp;quot;color&amp;quot;:&amp;quot;#630703&amp;quot;,&amp;quot;fontSize&amp;quot;:24,&amp;quot;italic&amp;quot;:false,&amp;quot;underline&amp;quot;:false,&amp;quot;strike&amp;quot;:false},{&amp;quot;type&amp;quot;:&amp;quot;text&amp;quot;,&amp;quot;fontFamily&amp;quot;:&amp;quot;\&amp;quot;Helvetica Neue\&amp;quot;, Helvetica, \&amp;quot;PingFang SC\&amp;quot;, \&amp;quot;Microsoft YaHei\&amp;quot;, \&amp;quot;Source Han Sans SC\&amp;quot;, \&amp;quot;Noto Sans CJK SC\&amp;quot;, \&amp;quot;WenQuanYi Micro Hei\&amp;quot;, sans-serif&amp;quot;,&amp;quot;text&amp;quot;:&amp;quot;的疑问&amp;quot;,&amp;quot;color&amp;quot;:&amp;quot;#630703&amp;quot;,&amp;quot;fontWeight&amp;quot;:400,&amp;quot;fontSize&amp;quot;:24,&amp;quot;italic&amp;quot;:false,&amp;quot;underline&amp;quot;:false,&amp;quot;strike&amp;quot;:false}]}]&quot;&gt;&lt;div data-mind-map-text=&quot;[{&amp;quot;paragraphProps&amp;quot;:{&amp;quot;type&amp;quot;:&amp;quot;paragraph&amp;quot;,&amp;quot;textAlign&amp;quot;:0,&amp;quot;lineSpacing&amp;quot;:1.4},&amp;quot;isComplete&amp;quot;:true,&amp;quot;textProps&amp;quot;:[{&amp;quot;type&amp;quot;:&amp;quot;text&amp;quot;,&amp;quot;text&amp;quot;:&amp;quot;登录系统后台查找后台对应的页面&amp;quot;,&amp;quot;color&amp;quot;:&amp;quot;#630703&amp;quot;,&amp;quot;fontWeight&amp;quot;:400,&amp;quot;fontSize&amp;quot;:24,&amp;quot;fontFamily&amp;quot;:&amp;quot;Microsoft YaHei&amp;quot;,&amp;quot;italic&amp;quot;:false,&amp;quot;underline&amp;quot;:false,&amp;quot;strike&amp;quot;:false}]}]&quot;&gt;登录系统后台查找对应页面&lt;/div&gt;&lt;/div&gt;" style="whiteSpace=wrap;html=1;fontSize=8;fontFamily=Verdana;align=center;rounded=1;shadow=0;labelBackgroundColor=none;strokeWidth=1;" vertex="1" parent="77e6c97f196da883-5">
          <mxGeometry x="21.25" y="65" width="120" height="60" as="geometry" />
        </mxCell>
        <mxCell id="77e6c97f196da883-6" value="执行动作" style="swimlane;html=1;startSize=20;" parent="77e6c97f196da883-1" vertex="1">
          <mxGeometry x="677.5" y="20" width="178.75" height="730" as="geometry" />
        </mxCell>
        <mxCell id="77e6c97f196da883-18" value="" style="rounded=1;whiteSpace=wrap;html=1;shadow=0;labelBackgroundColor=none;strokeWidth=1;fontFamily=Verdana;fontSize=8;align=center;" parent="77e6c97f196da883-6" vertex="1">
          <mxGeometry x="30" y="400" width="100" height="60" as="geometry" />
        </mxCell>
        <mxCell id="77e6c97f196da883-21" value="" style="rounded=1;whiteSpace=wrap;html=1;shadow=0;labelBackgroundColor=none;strokeWidth=1;fontFamily=Verdana;fontSize=8;align=center;" parent="77e6c97f196da883-6" vertex="1">
          <mxGeometry x="30" y="480" width="100" height="60" as="geometry" />
        </mxCell>
        <mxCell id="77e6c97f196da883-22" value="" style="rounded=1;whiteSpace=wrap;html=1;shadow=0;labelBackgroundColor=none;strokeWidth=1;fontFamily=Verdana;fontSize=8;align=center;" parent="77e6c97f196da883-6" vertex="1">
          <mxGeometry x="30" y="560" width="100" height="60" as="geometry" />
        </mxCell>
        <mxCell id="77e6c97f196da883-23" value="" style="rounded=1;whiteSpace=wrap;html=1;shadow=0;labelBackgroundColor=none;strokeWidth=1;fontFamily=Verdana;fontSize=8;align=center;" parent="77e6c97f196da883-6" vertex="1">
          <mxGeometry x="30" y="640" width="100" height="60" as="geometry" />
        </mxCell>
        <mxCell id="77e6c97f196da883-37" style="edgeStyle=orthogonalEdgeStyle;rounded=1;html=1;labelBackgroundColor=none;startArrow=none;startFill=0;startSize=5;endArrow=classicThin;endFill=1;endSize=5;jettySize=auto;orthogonalLoop=1;strokeWidth=1;fontFamily=Verdana;fontSize=8" parent="77e6c97f196da883-6" source="77e6c97f196da883-18" target="77e6c97f196da883-21" edge="1">
          <mxGeometry relative="1" as="geometry" />
        </mxCell>
        <mxCell id="77e6c97f196da883-38" style="edgeStyle=orthogonalEdgeStyle;rounded=1;html=1;labelBackgroundColor=none;startArrow=none;startFill=0;startSize=5;endArrow=classicThin;endFill=1;endSize=5;jettySize=auto;orthogonalLoop=1;strokeWidth=1;fontFamily=Verdana;fontSize=8" parent="77e6c97f196da883-6" source="77e6c97f196da883-21" target="77e6c97f196da883-22" edge="1">
          <mxGeometry relative="1" as="geometry" />
        </mxCell>
        <mxCell id="bgTZv6M7OsNh2IvBG2EK-5" value="&lt;div data-mind-map-text=&quot;[{&amp;quot;paragraphProps&amp;quot;:{&amp;quot;type&amp;quot;:&amp;quot;paragraph&amp;quot;,&amp;quot;textAlign&amp;quot;:0,&amp;quot;lineSpacing&amp;quot;:1.4},&amp;quot;isComplete&amp;quot;:true,&amp;quot;textProps&amp;quot;:[{&amp;quot;type&amp;quot;:&amp;quot;text&amp;quot;,&amp;quot;text&amp;quot;:&amp;quot;给出详细操作路径截图，如有帮助文档则附上文档链接（如果场景需要多张图片才能解释需要看场景发多张，实例查看示例）&amp;quot;,&amp;quot;color&amp;quot;:&amp;quot;#630703&amp;quot;,&amp;quot;fontWeight&amp;quot;:400,&amp;quot;fontSize&amp;quot;:24,&amp;quot;fontFamily&amp;quot;:&amp;quot;Microsoft YaHei&amp;quot;,&amp;quot;italic&amp;quot;:false,&amp;quot;underline&amp;quot;:false,&amp;quot;strike&amp;quot;:false}]}]&quot;&gt;给出详细操作路径截图，如有帮助文档则附上文档链接&lt;/div&gt;" style="whiteSpace=wrap;html=1;fontSize=8;fontFamily=Verdana;align=center;rounded=1;shadow=0;labelBackgroundColor=none;strokeWidth=1;" vertex="1" parent="77e6c97f196da883-6">
          <mxGeometry x="29.38" y="65" width="120" height="60" as="geometry" />
        </mxCell>
        <mxCell id="77e6c97f196da883-7" value="实际回复示例" style="swimlane;html=1;startSize=20;" parent="77e6c97f196da883-1" vertex="1">
          <mxGeometry x="856.25" y="20" width="233.75" height="730" as="geometry">
            <mxRectangle x="856.25" y="20" width="40" height="730" as="alternateBounds" />
          </mxGeometry>
        </mxCell>
        <mxCell id="77e6c97f196da883-24" value="" style="rounded=1;whiteSpace=wrap;html=1;shadow=0;labelBackgroundColor=none;strokeWidth=1;fontFamily=Verdana;fontSize=8;align=center;" parent="77e6c97f196da883-7" vertex="1">
          <mxGeometry x="30" y="640" width="100" height="60" as="geometry" />
        </mxCell>
        <mxCell id="bgTZv6M7OsNh2IvBG2EK-11" value="" style="shape=image;verticalLabelPosition=bottom;labelBackgroundColor=default;verticalAlign=top;aspect=fixed;imageAspect=0;image=data:image/png,iVBORw0KGgoAAAANSUhEUgAAATAAAAHbCAIAAADDGlHlAAAgAElEQVR4Aey9ebBc1Z3n6YmZiYmZ6Ima6Jie6J6KmT9GHV09E0RMT1NNdXXVGMqMTS22C2yXwWVhLLuoskDeCtkYATZGCIRBiE0gAQKhFS0ghHbp7Xr7lsvLl/u+75kv952JfD/46edzl8yXL/PlzffOI0OcPPcsv/M9v88559577s0vZPkfV4AroBgFvqAYS7ghXAGuQJYDyZ2AK6AgBTiQCuoMbgpXgAPJfYAroCAFOJAK6gxuCleAA8l9gCugIAXkgAxnfBcSbx6I/XxfdCv/cAW4Ai0r8G7sl/3JI/FMpCH6kkCGM753ottbtoBn5ApwBRgFPog/k86m5JmUBPJC4k2mOP6VK8AVWKUC00uXWgSSr1RXKT3PzhUQKvBR7KUWgRSWxWO4AlyBVSpwMrabA8mvSHEFlKIAB1IpPbHKkZVnXx8KcCA5kFwBBSnAgVRQZ6yPMZ63YjUKcCA5kFwBBSnAgVRQZ6xmZOV514cCJ+JP86usnEmugFIUeDP2k3R2SYZJyZ06zQxIuxe3bNq0aUf/ffuiW+/Zfvs922+XyrVp06bdi1v2RbdClk2CPyhEKrto/D3bbxcU81nEnZtvwyy33nELhmlg27G7MTuNx/ADe+6CFm3atEmmafuiW7cdu1smwZ2bb3tgz11YLGhFLcRDt95xC9UBtMKjGBCNv3PzbduO3Y1ppALbjt0tWjW0YtOmTZiRqQV7EOxnWoS5hIFNmzY9sOculJoJ3HrHLaL9eOsdt9y5+TaaGPxHNDFNRlsnbOw9228XWk6lu/WOW0RdFLTd0X8f6sCYhzaAnUIdMGZi6ZNOAYkQUudGy9CPma5FyyAA0jORzXwVFRccC3tl9+KWB/bcBUwyfSmDENSOQO6LbsVCpAy79Y5bhD2NXk41EXYkWrJSIKVk37RpE4wRtF4QQeijTGMxAfYa6LZ7cQu6GvVg4FNYERSLpQl1o/Lui27d0X8fdKiojIgBdvqO/vtwqEV7mOqa1BOyQzO3Hbsbmwk237P9dqwIZxQ6btKmoZ00kgm/GfmxMTUtxWTrMyR4w47++7DnmIpRjh399yEhNA1kFO0AmkwqzABGfYKpDnsRixLG4CEMMB6D8cAnrU40fOfm23BAxX6CJu9e3HLP9tvphAbudesdt8CKAwJMsZCe8kylQ6ekdgpnM8ZlIbFQyTs33wamAtvQZDpwUK+lYlJO9kW3SlnFFLgiIBlZmK/Q9aA8PQRDM43BTgFJQV5sC3TEnZtvQxql/JwKjmXSSGH4zciPDakpUSZbBBJ7CzoAuwf7e9uxu6EljATUC5FYocXNxKB2TGK0gYmnX4V5ZZZVtAnglAyrt95xC20XVkS7B1aDtF5wekgMNoMgGL97cQt6A/Vs6hmi6CI5FEghddAu7Ds0G2mhK1iwnEqB2WmjKJA4Hu2LbqUZgRnUEH2JpqFNgOyidtKqqf3UDMhOjYGUsDoVrmKwolvvuAX1x7kR8lJTIYzxmJ3aIwxLMdkikOAflCiYEMCxGCRwNoA0aBzNjpHNB6Q8bNOmTThD4nwiHDKpppgea0cvEdUXnAkLp0VhGLsQY0QD0OUP7LkLVsWwFoJKmwESDUZi0dHhEOOy9Ci0EepibAMeGNohJe1c4ShDSYDsWD6THS0BM+iSFQ4x/Ss6xTFmw9d7tt9OzQAghYMmAonSoWLCYnHJAGnoUAv2C+MhRubfNyM/NqfnmHmyRSChGiQKFzbQW7Akw9EFWy48U8eWY2KZBrR2iOqFJTBuivEYgHPCe7bfLmQVJxBITPsGs0sFpOoVDnCwikNZqNNAi8A2FJAJYEamRsQAxwthK2gaYUNweEWnp1Vg5AN77oIBq0kgYUjCf+HyBK7JpUSmVVNT0QzaOubaG7gliEnVA4NpLwPM1JGoPVLx1B6p8KHojvYDCcbheIYiQr/iME/tBvuQZylzpeJXtLwU1ksXcqJVwMDP2E9TosvSK6jC5tBulgkj81ACKinMAhMXPedBq5BYtA0OMS5Lv1JlmLru2X47PUrPBnEdixXRMpEEaBQ6LgZwgsXsUBEkwMtUDJDYTLCEsZZ+hZTCBRFgRi/OQY0wBOyLbsVpA8I7+u9DC6FMKgg2R2ZcozZLhdsMpFQ1NB4khpU6c2Ig9GCacUVh7GZhLqqjqK9TqyAxdh4coiVA+dBVEE+9gYaFltAYprPhECMIjDvM2SmAh1TQGjFMW0RpQVeD6mi7qIfR1sFEASug3YtbwNFh+qV3vHAURiChCiwWbcMTClSAmgG54BBjORyiQwPGQICWI2UGjMWgD663qW1wawA6go77D+y5i5aP7VoNkG1esoJqtPPotWA63uBwRRMwzsGI28xXKhCOrCguTjs0mbCP0S2gq9DR6YoFRUe3E5Yj2hxR/tFCDCByDJDg8dQkoeehUDhDYgwE0AZYd+FSllkSozEQwBkS7iIyZYKnIvZUDSkSqAdDaag8dJDQAKliG566M02TuiZEhQUbcLEK1qKFYDB1JMZaLErYTEY6/Lp8UUfk5kfr55DgLtRoWL+B3QAhthDcAiEBsxj/o83GjNgAYeDOzbdhgQ1nSHAU2sdQINp/5+bb0MOYQ1g1XgQH5xb2Co1B22BQR5ilCmeQxhubdJUFealnIIeMm9KlHYiJ/YLNofBQTwJNaC3MAgenDmgjVZWWKUUCowBTEQ6FtFjav9hkbIhQloZmMJXiCfmO/vvAdWEpS12CZqFyUTOk4mmafdGtUjRms9I/JcAUwXyFU3amnyANard7cQt0GJLDXCMRBRLvlzA1Ml+BDeB89+IWrJRJhpMbKIXTBSWHik6zI6s0EppM5xk8KtocOApXuWhFooVDCdDxNDE2E0uDIZnOVFJuClnAyXAqhkjsRIYcUSDxXAtHJWAeBjKqJxVHxkFRAWgvLQHWjRRITNz8kpUpkBniqZuBjKAJrKjBnZgxmgIJiZl/GyaA9J3aGACli6pJl6Y40qP1OL7SnqNHmckED2EACYfFCSM9foXhgLJK+xhKoz2N5csfkgJPKp4WS+cxqhKkAa3wkjXNiMM2lAAKAJaiowzVFgRHj6Q3MxBRIAe7BuJpSlw/C3uHqtpwasIqkFWhH0OnQJOxN+HqIH6VD0iZQVsEbaRkMhMMTczc9qBdQxGgwyhNQ8OTS+eZK6v0a+tLVlpHG8PMvco2lsyL4gp0XYHObi7vevO4AVyB3lKAP36llOduestvuLUdUoADyYHkCihIAQ6kgjqjQ4MuL7aHFOBAciC5AgpSgAOpoM7ooYGcm9ohBdYISHpzCW8Q4T0ueqNMeBcLW07v0WEhwgBuNoDyhXex6I1HLBwCuP2SiRf9ytyOF01D65K6NY8bJBhTRe9bUgvhRhzePxQ1ACPpXTvRu2HMDTfMiAHaFrwjh8WC2viV6RfardAuxiXofVGoEe9DogEYoDsWMBIDjJ0NHxWAjDJlSjWKthEKwS1y8JXeopNpDlq+L7q1U0DSm6FACK0VtlOgJ6F/QC4Elcki/5XefWa2azA394UdBiUzN4vlqwN/Em5bY3LRuqSAhG298C90G3inUDcojd6Ppj6B27KlHAhtE245gOZgAnhiEL9CgLYFgcROZBLTgQMOYfOFA43oKyPkPVh0dwRUxJTPDHOMnfSrVJmMYzBfafmMRIoDEroNHAsfkwMJmLEEdWG2I2F8w4AMkMwuUPrYGzNOM/6NXxk2qPsyr1Rh7KQ9hB5J02Ak1rVp0yZwKYzB2UPo5bQoDDMeg/FSAaHmMGnjyEiXMPgmJCojUzL2BZ12sKXQOnjgGDJCUUwt0Hxou/DZABQHAzCI4FcIiD61DINIk2UKd6Iz8lIgcSYQbQuaxMhFv3Z2hqRA0tFCdEQEs4Q76ai5wrEfnRWdANJj98NX6j00jIVDyfhVJkD3akIyyidujsVeR5ipSYAWPFMnulbEraH4WAz0MZbPeB58BXsYj5FpC7SaTpjM9ItM0q7EWqBFaAmsS+kYBA4K8dh8nMHQJZjBGsqnMyRTplSLmIaDyLQcGJqFXSNVILYU2ygVEC0BG8hsBhZNDJFrBySdEtHbGMvQ55h4/MooTr/KA4kl4LMCNIb6DcSj09BkMKbi6RD1EvBsXHvT1+0JgWQIBL+hZ8iwyR5KA91wOKf2SIWFw5bQjYABYTyzBKUuhe2l0GLr0BhhmYCEEEh8Nh1qob3JeDBWDbUIJyXoFGEJMi/maLLM5mdI7EGUgqrHjAuYhgmsEZCgoLCr6NgMNDIOwZjLKE6/Ng+kcDwWngoKgRROjEyP0gcmcb6ladAj6WsERFe8sNCC7sTzSSxTSkwc8mQWIIyeDb8iM8IZUuaQsFgwCeZbqi2saUWXOdSDQUa6AEbSQA1wG+oPiDSzIMIVR5NlNg8kLl6w+coFEk2kAdox4G3yNMpL0zyQtKehTHjKFmch4cCBZlPAaBgTYAA8hqYBIJErcHE4Y0SYoWoYp6AEnHWZaQErEgZWBCSd7mQajtbipSPweIynYyuYxOiM4xHtdyhEtI00O8hI2aNrEOQZtKWtAI+iAy4W22SZ6CG0WGEYmowWChNgDDZW2HEdv8oqHFapEThWYafSo6JhZgikX2WApNcMKSE4pAlPXBmnQWNodiHAdECB4ZymB49ET4J1MjYB7ceqYcmAjk6BxN6lAfRLrFQKNlx1M5e7sJmoDMSAJRRFiIdVA87MmItaBWGpGRKARMthYIKJFMkB9wA/xsUFLvsxRjhe0xJQdrQWZ04sQbRMoQ9jl4EItF9oGC/wQDJqDMSI/tvZJSt0Bj6bR/sJBi3qwaL2MZHCIRD7Eh0asoD3w+UW9D/Qi751AiHBNJAdqWAMQF8X9hOTEuqiqyzoeKZjsHdxIQ1VP7DnLjwEJdPOZgphfBFv84i2ghFKNA2iRRtF2w7x9KXywmmZMVJ0hgROEAlaHc2ONqMNoAazsGIUoyVgyQhkk2XCRQfqHkwttF9omDkZETUGrcJAZ4GU91pqInOhEu1jAowW9CjqC5H4nC6mgc7DlxHR64dMXpl5Ax1CvmlYKU2PHolHKUh4vgHDFtx4oHfGaGdT6aA0qgyeX4nCxjRWNE1DIEFe2ms44WDrhEbCIawRekS0LjwDZLKACDiO0/GOigm5hAZQDdEM+TJxIYPtolIzxmOLGBqZ5mBRwkCngBTWxMSg6RBPu5ZJ2eRX6u5QOHYbaEpv4kECXA0yPrr2QKKjoHPA1IFfmY6naw0Mw2IB113QCjxKA3S8l1rWQnoqPgwuIB2WgKdnOMNjFlojHf7gVAWaRruApqEeTFuEhUMAoYKvYButl/oAjKFClZopk6ZhgMSvcAoD/9L0KwqvNZAAHkjGdMCK7MbE1J8wkgagk4Rn0nTuAu+nHcmE8QUNTLzwK6zchPHCGPAM6E7Gm7GP6aiP0FJnxZZiFpxppYYVZvRhfBoLpNWhoyOHmAxWdNA6GqbnBZAYT7mh4XQApaWhUNhlYCHagAmYAL0oDQXiDEmdBLyu+TIZuWiPYLF4fgv8y5uK7aKtxvBaA4kV8wBXgCsgVIADyZ/24AooSAEOpII6Qzhe8piNpgAHkgPJFVCQAhxIBXXGRpsNeHuFCnAgOZBcAQUpwIFUUGcIx0ses9EU6DiQsI0LbmoxN45wExO95UVvVGJ65vYu3jqj9xI3Ws/x9q5LBToLZJO7FhggmTuneHsXOgDvgAv3NK3LHuKN2lAKnIztpr/kIQy3/tseTe6Gw8c6YW9HwxkSd3hI7YeAjSAbqhd5Y9eNAp0CEnf90sdYpVSjM6RUGogHCGEDJO5+4gTKi8aP9pACnQISJYAt3bjrD08LIQAvgEAgcbsj5MLH8HDVCuXQn3enK1islAe4Aj2qQGeBFD74CzIhYPAVgITXmcH2ZXikGB8shucDYDULEyNeEBIuXPEBgh7tEm72Rlagg0DCHCj6fAAFEs8h4ekYnELhNYH4FZ4PhAUwRY7PkBvZfddf2zsFJDxPJHx0BRSkQDJP+qHEePEGYyCA9zzgKweS0Yd/7WkFOgUkiLJSIHE+FAbwdYNCIJnEonNyT3cSN37jKKAsIFF3eAMCvooC44UP3fIZkorDw72uQBeAxGuqqB2NgSs3sAUHXtOC128gvXCG5Lc9UEke6HUF1hRIXFvi+hPfdgNnjPS9D/QcEl9eymfIXnc4br+8Ap0FUr5ufpQrwBVgFOBA8qc9uAIKUoADqaDOYAZL/nUDKsCB5EByBRSkAAdSQZ2xAScE3mRGAQ4kB5IroCAFOJAK6gxmsNxoX5k7zBut+dDeDgIpvN2P9yEh0MKLOWgJ8GIBqIUpCvsSttTi/nVhdkzZQqCZX5ilLxmhd1ZpdbBvXrinV9RBhb9QItV2WgW8AB+bz7yTAVLK/IQGU9SKvtIfHZTPKPV+CfoUHjSB+fFcqYeKaHXgJ/BEEY1vGGacB36JAEqjhuEvFKDIUgH5GtcOSMYJmP3ldAcc/XUKxnrMhb+4xuhFd+1I/eIdbAZq0o8ZA/ArFII/NYPxTKAZIMFl4V9oILSCbp+AYqE0qYdL8fcbhY+kgXOgbfRxGYiE5mACfPANY1oOCH8HCotCSKR8F30GxzIMoMPgo/BQLOMPWDI6Rgv9Dp0C4qO2247dDfbD5hbRH6qR2suNCggDnQKS6vLAnrugv1EdCFBpqNBMMvgKgjJAQrHoXrT9Un7AeJ5QkWZiaCFSFUE5DYHEhtNWw9yIMehMdHqUsROdVSYNPXTn5tvQ9SEeJm1RJ6MZheGGjEGjoMvQoYXlwO/2oFWoEgbQTmZnJRYFhWMJGN9CgAESuwPtZ6zCKqhDYqR8oFNAChdgMnY0/2IO9FGYDUAp+Pee7bfjlILzJ/MropAdk6FJ1ACMlAow6yX8ySdMD/0Ew40UkIAWvPpAdK0IoxhsFYSiYIGEwlIpMAw2NA+ksOHM9NsMk/DTYFA1+ihYLsoDLsVpYlQPA9iJuL8SmgmSYpMxgOMyFIvYoCbNr1dpi+C3xqAW/IEteC4X7e8xINv4Yg5gD3uUai3EjG58xXd/ID/0KS2hX6Jb0AA0BDNS2KAE9D/8AW2aBruNIRDgpGsKGFygNJgBUENqj1QYjEFPFQ3A2bXwEF22NPleP/BLmlF0QQR1UcLRoUUbwgAJGVFDHJiYvDJV7+i/jxrJZKRfmRYJZ0hRIOkppVBYjEEnoTViuOMzZCdezEGBhA7AbqCKQ4+Co9N4aDydUVEOmYBwYqSwYZnADyDB/MoyOhP9BW/RFe/uxS1waoRzHYzNUDi4C3YwDYAZzLpAplEND4Hnoby0LmEYhioY+0B2HLxgnmF8UaYhUDimp9Ih0vI8Q9PoYwm0sStqUZNA0vKxdmyC8KhoTKeAxPG+vS/mwBkSvYF2OfQ6TJUwpeAyRrTxLURSCGlYWBQ8zEnTgFchq6gMLK7o+ApmQwnYo834H5ixIiCZNSoKCwFhu4QxYJhwyMPFiFRRQLuwQIhhZkg0jAqFkcxyFNNg4bhmwRiZANMirGVFS1boetGFm0zVnQJSakWBQx1jE5306I/UMskQSHBZXMihZOC+4PRYppTPifoQUyPzlQImrJ0WCFMcTQ9tp56BHbwvuhUvAKDZ4FU4plAgsb00gGdNWKlUw+kohtUxLaXVMYeYr/SMi6mRViQ0tfmBA90GA3gjB/UBqxpOfTjBMq2gX2mL8PeqQVVYs8AlDJSIWoXlgLBwmQAjGwbWAkjaE0wYxw/GLYRnQdC1QiCxBHpdDgRlyqQJGuoilQB9nVmOCtNDb9GL8rBShSZgelyU4q+ag9kP7LkLD0Fi7H50ESyEGcJwbhEqQMmH7KJppMZTWqNMWIYKiijaKVMUHAKPx2Jh2IWhjTqAsBxGQ7is0AyTtCjoMnBdWPrBo/PQIxBPx2I498alzYruIa0FkNg2OF9azYs5mgQSahS6mpQHAP/MWItm00DzQEIuml50HEWPgdkSYINmYt9DUc0DiQoLFVgzINEdqXq4CoBIUfNoegjj6Q8uOugAxJSJJQN1KO9KLxmgGVg77UpQmPYIpgcamWECe4QmEw2vEZAwtkGTVvNijk2bNuFCERrJTLnUD4T9rVggsWshsHtxCwz/+JWZsphWw1dYstJLuMwCEnPRaUoqDSQWdZqGkTiVYY0YwKqpnQ0LxAQwqMEAipPSrXfcgv2OngZHEUiQFPwHS1tRAIG8c/NtwBv2GpYDzonGYDzeuaExouFOAQnjCsjXrhdzwDkVHXtQI2gbwxsAiSMc+gQG8KRLVBomEtTHvFIBOC+SOkrjoXbwGFyvQqXoRnQqoN3PrHtpMpxp6V0f2hZmShEOW5CYVkezNxNmOgKz0KqpnZigYQBgEDYf4ukla+x3HAKgcOqNDaujCcDZKPyMRFAjzcKEYRyhDswk2Bfd2ikghTXxGK4AV6ChAhxI/rQHV0BBCnAgFdQZDYdPnmDdK8CB5EByBRSkAAdSQZ2x7od/3sCGCnAgOZBcAQUpwIFUUGc0HD55gnWvQAeBlL/jzGzDl0+80m7Ae1Bw3w82bcBdI9x2jPeI5auGEsCAhinpjU35xLRF9K4dDcOuGrrPC98JgNmFG1CYttP20rugWAIPKEqBDgLJtJNuqmYOSd3CZranCHPJxMC9Y7iZiztj2/vahXa1SAghbPUQ7kehRMGIJowBTfB2PxaOmw2Y29kyGvJDa6+AgoBkfIt+bUEXBkicu9AdRXeWCrd6ylTdEEjaBCYMxTLTF+4Fg6N0PwqkxCe24BUbMMnDdi1mIy4Fkqkavsq0ix/qogIKApJxKRAF+WmokfCRGfA8fMRJ9ClvYbF0e5fwKI1pCGSTLcJycJsugxA8LsBEin7FGimQON/CqNS8pLSxPLw2CigISFEPg8hmtAA/w0lGOEOKAsnMUVI2iG4XRpBEzWv+HJJ5uFa0NFxwih6FSISQngLwJauMYgo8pCAgcXSnMtHhXOYZAgoSbCZuEkhaF4SbwQNSNgSyYYtwCdqwUtyDTluKYZj6AEhmiJESTdhwHqMEBRQEJLqXMNCMUsIZEspZ0ZIVLgLJ78dHYxoCKWwIxmAht95xC7yFUeqcFlNKnd+KTp44W/IZkgqo/LCCgGxmPpERVHgOuXtxC15lhQUkpIFXRYkCAH7c5GsXGgLZsEVgHjLDTG5IL67DpRLgJSvUB4HEGFFu8SgPKESB7gPJ3DdDL2QCQp+TVxCWrFAIVNH21y5IAdl8i+7Zfju8YE70HFXYwOYvOCGQUsbQ25vCinhMtxToPpCdaDl6IUxBUEXbX7sgBeRKW4QzZMOMUjMkjDs0O15Swkg+Q6IUSg4oCEjwKny+G51vNWM5AtmJ1y40BLLJFq0ISNSHehW99AUoCqdcDiRVTLHhTgGJOIFTSv0LazA4Chrh+RIGYLoTdcSGsgKQbXntQudaBEACVKJC4UUmeRuEakhdYmX2LQoz8phuKdApILvVHl4vV6CnFeBA8qc9uAIKUoADqaDO6OmhnRvfFgU4kBxIroCCFOBAKqgz2jLE8kJ6WgEOJAeSK6AgBTiQCuqMnh7aufFtUaCzQOJ+EdHba0wD6PO4oj/wxKTH98bDnjjmKK2R3u2k8aJ7TeFeH94FZYqFr7jfAH6zQXTrAjxDLHzpAW5qoyXDjyhDDPOiAIgUvQMJG9Npi8Bs0cQ0Gd7YhMKZnQm4z0n4xhBqczO/JgY3V2XuIQt3FLewgQFut4p2mTJ7k5GRfu04kKJOT3eWgDXUxSGG4ZMaDQ/yIgbg+oyTYXbqbRSGW++4RdiF0LUP7LlLfusstVboUmAqlA//gjFQJmMn/qydzOCFWXb03weDi6iLY5Nxyyt1brQTjRd9Hpr+whT9zSYGcuhWqi3tIBqGvsbOoofocIY/ucHYLNxyxJRA0zOHFN6bjLXwteNA0oGZCVOD8LcTmTT4FV2wGcelEyw6DYMZui+aAf0HX3H6xaM0gD5NXYomQO9H+2FzDL7dh+6VodMjLUQYbh5IWq8wjIRDFSgRfAXjmUiEXPTpZzRVpneoGbfecQuTEpqGz8pBLVIYY3XUGBqJP94MkcrsTcZg+NpxIJuZIcFNqX2wamL8hiaAhwOZ4ZMyRrsf+gNKw2mBKfzOzbcxsyLlE1eeMKlKAQlowdNboj+39sCeu2BkwfkZZh4sn5qNYamjMs2nWlGWaDz+FiVWBAICkPD7bagSLUT0hwDhoTYoX+q3yrHVaAadhCFSZsbDXBigHYGRMEoquTepqUy440DSzmbCaAoMlvgVf8qP+elZmd2etGTweISTGemxFgwAojgD0z6GkQL9HneT0zQ4GTIEApz0fAxe2Qilgfvi6IDGSAWg7XSGhHYxK0l4mIuqIRXGRglPBbFFQCwMqUxFuGQF3YTnIPTsABolJA3kBSaZ8tFs7BdRZegwAQl6ojdF2wKRHQey4QwJK0k6vuI7ncD/hNaD6LsXt+D5Cc0O6YVAYh9jAH7LkRlKKWxQFE5iOJPTNOi+sOrGLEyxMMvBGRq6JqzQwHiZ4QZnSJhg8V8YINBlscmMYkKvhQSwBEA1IAAWUjzwQhFWhLBhyUIgqURQHQqF5sEIBfUKz+el3pCA2YXrVeEyR2iGEnqTNoEJdxxIpr/pVzCFPsUPngeujMsnpqvg0h+6L2AJX+moTyvCSYkWhV6Fl1XAHmEXUslgOKdpwM+QVXxNDrSCejaMTTghQLFCV6bVYZi2F+dVBkhMDGs2qgATpinpozAw6wrJYdhA6fB3ZkXXqHQ5ShWD2nFJvO3Y3aLXyZlKqc0YRkswpid6k1rLhDsOZMMZEod/sAz7GICkXQUjOrgmzj/o8Tv67wNPZfDDJSvjlPRSCnUXdHdMTzHGi5B4cgXui6tZgAHnQJxD0HXAYJSFAok10gC0lCYDoXDJihMX7VpRqBipccVIq2PCWCbqDAnAfpjh6e83Y3qsa0f/fXS0wj6lU7UAACAASURBVASwDkI7RadrvPSKuZgAqkrjld+b1Fom3Ckg6bkT08f0K+Nt4Mc0Ae1+ajrtP4inK0aaspkw04UImzAvgAFY0nqZ5SIFEi4Vgus8sOcuPATZKWlMIdTRIRmjDDND0pLl9aftwiGDOZmkhjGTFbSFJqBV08LRbBoJYRg3EUhhAqbS5hMovzdF2wKRnQJSpkrhIeg2+BenDvROPAoZcajGcsD5MCPE4yUWBJWWg0M7JkYIaXdiFUyAphF1KXRQrAhYom8chzLBKghjk7E6LIcmg6PCGbKhVThrYfmM0+NqQpgSuKUjArwsD4qCs3FaLJaAtzfoQgNTiqqHR+lggZE0QJuM8TSShjEBE6BpRO3BXmhXbzIG0K8dBxK6EJdViBO9xQTexmhBvRPpoqZjUQyKkAZPYOh6iYETS6NdQsOYgAnQNIzZkBK6ECmCAJw1wYutsHWYRvQmBN6uhGSUB3iVK3VZipOoVQgJbY6wBFy04yCFUmNGWKHgVyoI3gOkV9rQfvQEyAt24lGmgQ2XrPSGs6gxjGGYhgZoGlHd2t6btHYm3CkgcUkJ9eHoiAGY1qB7qFOifeiyGAMB7DOKNJOG+U0oCieefMK1ShlXwIqENzDoISYM5UMX4vkwmIcDrXAtik1DfZgsQokAPxhu0Aa4uIJf5QOMaMySVXgUY3CMo+rBsAjzIUMdZoQJGUcZqW0VmJ4OFhjJBChO1B6ZtsN8LpMAD3WoN5km0K+dApLWwcNcgY4qIL8Rp6NVt71wDiR/2oMroCAFOJAK6oy2D7e8wJ5TgAPJgeQKKEgBDqSCOqPnhnNucNsV4EByILkCClKAA6mgzmj7cMsL7DkF1hpIet+M7gVH4UT3AODRlgOimx7hfiDedJIJ4PY3vE+Id+Gl7pXR/WXCkvF2KG0R3t+jkRiW3w2Hr9ugCgvrxRi8i0vv40FdUi1CS+COpWgTMA1un8IaMSCVUWgJlraebmxgo0QDHQRSyjPQDuEOG2b/B/M8JGZsIcC8LkC0BHrjXmbHBuTFBFLui0OA8J6+VBZ5IBmbcURg4unXhi0SPsEktJYWiGEpPXFPD+4NYDZ4UJOwNAxs2rQJRwqMhICUaEyyXv/aWSClxkJR1ejeSEgAOz+leki0EIzE8VgmANMd+pBUStxBhjs/pcYacD5mKsMHssA2ZhcRGozTNY3BsEyN1GwY45pskbBM0eebcVGAxjScISk8MkDiHj3aBCaM4jc5UlAjezGsCCDBM+iEiTuSoXtaYJLxA2HfYAL0Hjp44wQouo7CPbGIqLB8nCHhEHq/6EKdphEWRbfa4VHhDIk1Ntki2l58OQDKAhXRl24AEsAnzpDM+MIMRqLI4TAtqi02UBjAThEeWjcxnQWSGe2EX2G3pzCeGZVxl30ndG/SfdHVGBswOxOPeOAGTtjDKbNhGqGlglCA0b9hRKBP3OMSkY4RFDn0ZsSAHgUgcdMvtoUCSYcABBIyMiOmTBuxZHySGDinTcYwbXvzW21pFT0X7iyQuN5YpS6iD6TLlIlb27FrRQPgxE0u8PBRCRkHgicwwDA6yTM6gHlMpPySVaaxwkNNtkgI5O7FLfSJcDjDxMGRTp4USBgmMBkMK8C2VEeA8jg0QBOwBMhFhxhIwKQXNnwdxCgFSOq+QnhAaJyjhAloDK6IaPcwzkcPYRg8Cd0C4zHAnMbgwxzMJIl20kU4TghYmjAABgjjG76SA5vPQC7fIjiKeZE3ChtG0lciCM8h6fk/zNsgArZFVH8KP1xdB2OEKEI5HMhsNvuFrMQfai0VQPmkYKO60wUeLZBhgB5qGKZOQMM0I8JD/VIYBsgZY9BmBJIu6vCoVBUMriudIREV2pzm0QXz6OBFC0T86Au4aEUUWrR8R/99cB0OBNl27G7sYlH9AUih2jSGrlrRo6gl6yzcwRkSvRNdk2qHTgyRomlwlUgzNh9GA9BjaE8zk4nQgFvvuAX9CSqlQMJr/CEe24IB4e2EVc6QMClR+4Vh6ruiBjAtYiChQKLIACSuBTCeARIGApgnATOQTjgJg9mwDKFyCRXG60y0UqaNeGjdBDoIJF4hEPo6vfAAUoqmWSWQ9EFYxvmY/gP3Al8BS0QvS+AKkJ4r4l0N6mrIg8zpHJ2dwB4on7ENv+L4wowLMNPiUUjfTIsYTYRA0orQDFo+EwlYCjsXBkRhe4WdTmtkrt9C4czVI6EBvR7TKSDphpsml6zCIR9jWlAZZjDgAV58JnQIYbHMRQja/XDpAv4VZhTG0OuTcLThiquNQKI9Mi0STl/M+TPtRCwQAvQ1X8yhJoFkhgMohALJFCtziEnZ0187BSS9USEcCIV9Jpqm5RmSXmOAjkS2aQCMpDHMGhV4hsUtvD9WdPVLS4Cq6eSM/iEEUmb+ZMqkF/2pa8IqFBLD8MFgJtMiBgmcIekASockZtnMHMJmYufKKA/DJS0BpWBOJbBY4foWD62nQKeAXE8a8bZ0XQG+lxUvrbZ+lbXrvcgN4Ar0nAJ8huSPX3EFFKQAB1JBndFzwzk3uO0KcCA5kFwBBSnAgVRQZ7R9uOUF9pwCHEgOJFdAQQp0EMj7H9v7yImnujJEbdu/68HdL9CqhTH0qALDa2zwE1d23Pvwvu7qgDas1HMwY5P2v2j+yb0P79s5tb3J9FLJ0E6pAjGBVAnC+O4AyRjaducTyi2MEWrRlRiptkvFyxvJCCufmB5dqU/TvO0KP7j7BRjBV9qKlRr/yImnmPG6tSagnaJA7pza3sIYtw6BfOLKjvsf20slFsbQo90NS4EnFS9vLbqIfDLh0ZX6tLCEVcaAT79o/sm+6NaVtmKlxt//2N4nruxYpcHUTlEgt+3ftW3/rpXW0nEgH9z9wr0P77v34X1gHAwbEHPvw/tASvwKaaA/tu3fBfGULmg5xENTIRltNg60GEljaAnMivr+x/ZCyTReNBINpkPgIyeeoqZSL4EWMVLsi26l5TCdh0AyEt378D4wjzZkX3SrUNh90a00DW0UjYeVG7UWihKdQ6gxKO8jJ57ChtBamFY/cWUHrRfYo4VgjUxGRhnsEUxPjQfdqJ1MRXTigsRoP7ofNIdCi95IexzsRJ2ZNXBri7LOAok2gQpoMbYE+gOdD76C4ijH/Y/txS4BhiEZ9D0DJFRE+4CJwV5kTMIhY190K3qVMBJcChNAX0J18kBKScG0HR1UNJ5GCqWgYzaUI9pYaDjKC21Bn2YaiPaALPc+vA+1FdWfKgb9CJ2OTg8Fbtu/iw5eMDahSTQj003Ucx7c/QI4Bhpff/JmeRxHhxFWhLkwMTQEKsJugjKhsU9c2YG2Pbj7BVQVjQHR0L1BK6aBVEmZcGeBRF0YX8GWYPdgIyEl/QpKSY1DTNuoy4oWTtPj0kX0pEI0Ulg+tkUeSCkphAVKmU1dROgBkAuNoc3EQ+BVdL2AydCnKVF4FALorBgvNAPLgX6krca5HedzLIfmEmbERjGnHugYNDszQAPqiApjMIMrhY3JSE1F0tAwpljG2zFvM4HOAokzyb7oVjoyYUvARMYpmaPQWhirYNVHu5lpJJ034JBoDLPEEvXRJiPxVEEeSCkpmLZjc4Tx1KFBTyE8jHTMqhhsEHK1L7oVfPr+x/bSoRCNESIEhxAJTEk7izGGdgRkxMmW+obQm/EoTrPYfTBjM0AyTcBhVzhxMSJjRdAcajBTNSTABjJAMq1DcZoJ9BiQOE9SsbCdtGMgkomBr7j8QEGbZA8woGjBsgcGiI4CyYzl0DrwAyoFtggZEzZWBkgY71BPGhCyJ0ppC0Ay3iwPJAObsJcZxqA0oQiQkUksBeT9j+3FWZF6FKrNNIEplsrYMKxQIOkcSCXA9jDeD/GMoMy0DPDQHsU5R1TBJiOxVxg7YUwFwzCN0E7RWhhToWScT1AECFApaEVMydhYmgaLQuOp8+FRHAdx7QeHGEfEUQCOMhXRgYPOIdR+0YzYrWgkNYyplBm5qIW0UiiBkQgrgqNgMC0BT6QZO5k0tKWMqQ2/dgdIpuVMl9Bzelh0waS0c2o7DnUoJZ4zgCjUa4UxFBLICCVDSpz6YDhoJpIWCOnBQgjjFTnGNWnzadtpjdhAqgB2p6gUzABEbaONBbdGtKCx1NfvfXgfDlsoL14CARteNP8E5KIJGFOZVlM3pWzQJSUUzmSkclHbdk5tFxpPWwqC0LbQgZ4Z9Rj1oC3QmziWSXUrxIOkzIkudlmTge4ACf1BewjOCkAv6A/AErWA9oDc9z68D5cQ6BDCazDCGFjA4EVt2vGoNbWqYSSaAeaBW4N51MVpRaIdD2eDUB06OngSNhlPnEAljKc2MMKihuAlOOKgnXjVlFqLrWYgxK9UfxpJpROuPOlRBBICjLM2IxclkxoPAxmKgzQCYDgMoTvRBJR8CiTKBWOHcJwFxaBw0dMfpoEyXzsIpEyt8oeY/pBPjEdFB1qcUTEZDyhKAbwk1i6r6MqClrnKiYsWJRMGMukyTSax6KF1AiQdI6GdwhjR9vPILipAJ5Z2mSEFZGuj/Eqtkqq9+XLWCZDNN5inXN8KrB6J7uqjRCC7qwivnSvQRQU4kAp6Fq6LfsCrVogCHEgOJFdAQQpwIBXUGQoZpLkZXVSAA8mB5AooSAFlAQn3KkRv4zR5GwPvnuMdSPr0FjPytXAp/P7H9jI3l/HmO95kh1rw6UcwicmFm7BEG8vYyb9uHAXWFZC4Z4WC3S4goUxmZ/YjJ57C7S+wVQ0BE25UoF6Fu2EwPT3KwxtWAWUBKdMNTc6QWAJDDsbTQPMzJNzdangjm+4OkwcSHr1jJlVqGw9vTAU6CyRuKYRpCvcNUselmx5xiyN0Bk5KzB5C3OAvtRqk5TAbFHGFyWzvbKb7VwSkzIgAVVMjm6mdp9kICnQQSPogDKC1IiAhC6zocIEHXUJnS6FbQ2I8h6RA0uUrDBbMghNPQSGAR6FeeSCpwaJbmZlChJZvBIfjbZRXoFNACn2X7mlqZoZk1pMUQmY1yOyvZx4QQSBpCSAKU4W8UlLPBEIuoAsBxhEEwMbRQWY50LB2nmAjKNApIMFBqYIrBZJZ8lGcmHmMvsmCPl4ItSOQwqex2gUkM9nSVuPqGpikIvAZkhGKf90X3dqrQArvIkB3Cp+yaRJIuEbKoI4zHhQunPbh4UZm7BA6FjxkxEybWBeu5IUZecxGU6BTQAp9l77Si5macJFJJw0mDX3+nTnE9BlzIwGBpHMsZMF6mRKkvgobRa2SyiV8IhlS0sbK5OWHNpQCnQISvBBvDILj4lRAr/fQ9R71UcgCdEE8PqkNh3CSfHD3CwghUIdfGRjo4hZu3DNzoHzfC4GUGhrQNlyy0hiohTZWvl5+dOMo0EEg6fsyYM2GQNJD9PYD46P0rgkzvwGTsOqjvi4PJF000nqb7G8hkLjsxAC2EWOkbjYyjW3SBp5sfSvQWSCpdsy1UHqIh7kCXAFQoINAyq8keQdwBbgCQgU6CCTcHMeVm7BuHsMV4AowCnQWSKYy/pUrwBWQV4ADqaBn4eS7ih/dCApwIDmQXAEFKcCBVFBnbIQZgLdRXoHWgTwQ+7l80fwoV4ArsFIFPo6/nJX9+4LU0fOJ11daGU/PFeAKyCswtXRRijiIlwTSn3a8HX1EvnR+lCvAFWhegROxnclMokUgs9lsOOO7mNj/dvRnzVfJU3IFuAJCBd6N/WIo+cFSIxqz2azkDCnPMT/KFeAKdEIBDmQnVOVlcgVaVIAD2aJwPBtXoBMKcCA7oSovkyvQogIcyBaF49m4Ap1QgAPZCVV5mVyBFhXgQLYoHM/GFeiEAhzITqjKy+QKtKgAB7JF4Xg2rkAnFOBAdkJVXiZXoEUFOJAtCsezcQU6oQAHshOq8jK5Ai0qwIFsUTiejSvQCQU4kJ1QlZfJFWhRAQ5ki8LxbFyBTijAgeyEqrxMrkCLCnAgWxRuRdlyuVwmk4lEIoFAwMf/NqQCgUAgEolkMplcLifjPBxIGXHadiiTyfj9/mQyWalUPuV/G1KBSqWSTCb9fn8mk5FxLA6kjDhtOxSJRJLJ5Ib0Q97o31MgmUxGIhEZx+JAyojTtkOBQKBSqeRyOffyn8vlcjgcLpcLvq7oX9fy34qy0MS65T+n0wnlKPZfq9VqMhrcTvvyx+F2tvljs5gXFhYcDgcVRz4M/WW32ywWK/yZzGaj0Wgymmx2u93usNns8iW43W6fzxcIBGQciwMpI07bDvl8vk8//dRgMGz5yRP3Przz7x56+ps/euq+bc/c+/DOlX6+/fDObz+8895tz7T2uf1b2774zYe/tfW3f/fw040/DzWR5uGn/06Y7CGJyGYqXU7z1S2/+sp3fvbtHz15749+3YnP17//yz+/Z+s3/vHXTcu48++WO+vuB5/46+8/9tUtv/r6Dx//qwce/cp3//muzb/42wefvPvB3/ztPzxR7xrZz9//eJfP55NxLA6kjDhtOwRALiwsfGXzL2+97+lb73t66zNHtu859f0nDt5639Nf+/GrX3rwhS9uef4vt+794pbnv739zT9/YPff/uS1Ox98ERLzfxWhwHd2/snmXX96/67b/n7nf96868+//+z/+73n/vg79d687bvP3LV17x0/fP7Pvvfc7Vt2f+kfXvjSP7zw1W177/j+brD8zx547q+27v3P333mTzc/y4FsG1ctF8QA+af37/rBr9/9T3+/86fPn7jrRy/9/IUPtj137Ie/ee8Xe079aOfhfR8M/GT38efeufjz332gCEdcHkG4JQ88feyZA2d/9frHj7968snXPjzwcf/rB69+9aGX/+IHz/9/D+59+eTwS4cv7zl6/Zcvnv54RP3OqeGzfUMPPf72H3931x0/fH7zY+8fOj36s10nn9h9mgPZMkdty4hAfvm7vwDPfvC3hzY/9tajL5/+9vY3//Hp9x944uB9v9z/0K6jX/vxq5sfe+ur21753uPv/P2v3lr3GHzlG4/+9Cvf//lXvrfSz0+/8sBf3fOLW+/97ZpJ9OV/2vOXW1/64pbnv/7TV77241e/tf2Vv3lo7xcfeP7Pvvfsn3x317d/eeAbP9/3ncfeuudnb9z/+NvfffTth3Yd+vpDe2/9zjP/5f5n/3Lrq//42/e/9cv9mx/dz4FsG1ctF4RAfu0HO7645Xn8fOVHL93+g5tfMX7jBHZ89R9++9UfbPvWT1f6efJr//D41354x5bdPacVB7JljtqWEYF8//iHkxob/6AC+sPHVVeH8Wvzgfm+Mf3h45MqS/NZFJKSA9k2rlouCIEcGRmp8T+qwMhAzWmnEc2GPe7ayGCtUm42vWLScSBb5qhtGRHIoaGhJh0jny+YHX69I6gxulRGT6XJbNLJyuXyotE5OGMy2bwas8ftDY1rbIlUTjpH4yPBcNwbitscvtF5y4zGOq62Ti3Yb0wvzui9lWq1cf5arfb7QFar1WAoqjL6AqHY9ILTYHJdnTA4vZFZrd3qiZYrpMyVAGl3+cfUlqkF++iMbnjeZrD7bL6Yzuwc09hL5RalLeTyKr3T4Q4aHQFPIBqJJRy+WDSe8gQiuUJJpu0cyLZx1XJBAKRWq+3v75fpKnookUydH5w/0a9W6R0zi07iiTTVCsKFYnFwVPXBlZlptWVabZpfsF4aUYfiqRUUIUiq0ppH5syLRseNGcPQmObIpanBGWPfyOyAyvF78Agy3oz4fSArlcrI5OKrRwfVRpc7GLdaXQfPjk5prGcvT42r7MUSmQ9XAqTBYD98cXJgxjBwY+7iuNHiDETiqeFp3fmRBXl4btopCGXS6atj2v5RzYXRRb3VO6W2TmlsaoNraHIhGM8Ikt+M4EC2zFHbMn4O5MLg4ODNnpENVarVSrVaKBbzhVKxWFo9kNVqNZXORuKpXKFYWP5ksvlyq/MD2L60XGChVMrmCtlcPhxP5YulRDKTSGWrLc2QtVqtUqmUS+VSuQxNzuUL2VwhnckXiuXfm3VXAmSxWAwvNzy5lIkk0pF4qv41XywWS79XpmyPMAfL5XKuWMoXioViKZ3JxZOZcDwVS9YLz+SLTGL6lQPZNq5aLgiXrPwckrpmPfz5DJlMZxetPq3FK/9ZsHjDMKuvBEi20q5+50C2zFHbMiKQFy9dCkei/IMKJC6ci6nmw5Go3eUdm18cndU1/JhsrnAkGl3QJi6cC4fCWFSvBDiQbeOq5YIQyAsXLwZDYf5BBWLnPoqMj4YczpV+IlMTsXMfBgNBLKpXAhzIljlqW0YOpBQt0YG+xKG3Ex8cXfHn/XeifdeCQQ5k27x0AxUkBDK5lEoupdv9SaXT9cdfe+mzlMrGYq19MkupXmrpcr+k0mk+Q3affAbIQDCUL5QKxXJ7P/lCqdlrm129qrGRK69WqxxIDuRGRkBZbedAdp/GbDbbcIbMF0r5Yrn+b6F+Ty+XLxaKZfi3+VmUzpDlYr7+VgKnMxJPuJdfTbCUTLpcLo/Xl06l3G53KBpXlqtuDGs4kD0AZHopef369Zk5tVazoFJpxicmJmfV83MzCwZL8zQWlnnGJWslH3/hqWcOnTjx8dCVoaEbas3C0lJ6enrC7/frVOP7D+x/++RHGwMBZbWSA9kDQOZyuempKZ1OH4rEw+GIwWAwWWx6vd5ksbcMZCkbP/DqK4dOHBuZnRwdGZqYngyFIsNDA2azZWxk4NixI+8eP9XsNs5Ki7s9lYWCMqzhQPYAkCuiTiYxXbLWarVkIhaNRbOppVy+kM+m/B5/qP4XDodCxVLJ7/c33m5ardby+VpWbmemMvy8Z6zgQG5cINvgpOlULRxqQzm8iM8V4EByID/3hZX+v1isadW1ktyTRCstkqfnQPYAkPl8wePx+UPRUDjsC4Qz2fqTDS186JK1Wq0Wi/XHRFr8RKPli+eK2VyL2Vuud51mrHx+Hs6B7AEgl+KRXz3y6P53Dl28fHF8YjoUirdAI3OVtVarVVv+i8eqw/3VVKrlAnhGoQKwOuBA9gCQ+UJxrG9wblbtD8WzuULLm3joDNn64rBarZ04XAv4a00+0Nh6TRsxJweyB4BsbT4U5moDkIl47fA7tcWFNrBSKtWC/prf1+VPOKSokYUDyYFsGq58rnb8UE0913QG2YSTY7UjB2uffNjlz84narmsrKFrepADuUGBrFar8J6OZv/N5kpHD5VOnyjkC81m+fxVIKLpyx+fqdotpVJZ9OgaRRaL1T27KktLa1SdhCAlcqWaA7lBgSyVyuXPr+w1ngIy6dqB12r7X60V5V4G07icz1NUq1UAsljs5l2TUqm8DGT9Zzk/N60L/y8QVTmQPQBkLpdTq1XqBcPs7NTg8MjZD8/3DfbZnF7hWaJ8DD2HXAGQ5XLt3Tdr7x2oFQvt8lYOJFWyQEYlDmQPAJmMBh/56aPvvH/kSt/V2amZV5/b89qrr06pjfL4CY+2AmSpVDt/trbjn2upJepDqwxzIKmAHEhFQEiNkH/8KpvLT46MaTSL4ehSLl+0m00msy2WzAiRaxRz8wFlZoYsFApujycQCJbL5VQipjMYY4m4Vj0fffXF0Fe/ZL0x7HQ4JsdvzMzMprKrenUyOKIUkA6Hw+v1ud2eXC67oNXNzmtsLpdeb/T5Az6322q1x2Px6clJq81tNi7odTqH1TI6Oq5b1Jt0Bq1GvZRe2a5a0SVrIBAwGo12u93j8SwtJbQLGp/PFwwE5xcX3V6vxWIxGw1atWpiYiIcTVCuWg5zICkLigjLA1nHbPlJSLgDCU9FNmJPZCuPzAxpNltMJpNKrc5ms3OD/UdPnrl49dzYrl8b/8O/O/PxxY/PfzR89eqrO59+fs9L0USyZc/DjFJALi4ujozcMJst0Wjk7bcO7371nctDA0ePHFepFkLeQDAUD7qdu57aeerktY/PnlBrF7RzI7/85S9OnTv34cFjzzz1G5PDjVU0ExAFUqfT9fX1eTwevV6vM+omJyeHBi+ev3T19JULV/s+uXTt2qFjH7735oGdT/9Wb3M2U0vDNBxIRUBIjWgMZEt75RhoZYC02Wxa7YLZbM7n84lwePh6v/Xw4eyX/8vwi3tGpmcHhvrHB4dOHT9y9PjJeDLd0MMaJpACcm5ubmxsXKtdSC0lz108f+L4GY1ebzAZPX6/3WQ2mayGxYVrV69f7xtUq2esFks05D5+7Mj01PzM8Njpjz70hKINq6YJRIF0OBwGg0Gr1ZrNZqPFMDIyMjR0bWZqcmJqbnR88Hpf3+VLV85/fPbg2++4AhFaWsthDiRlQRHhrgOZyWTi8UQ6na5Wq6Visfjx6fL/82+rVy7k0+lMNpup/5fJ5+uv8l7BtVlpD5UCMplMZjKZ1PKmvGwul1t+eXi5UqmbkK2/myuXyxXr70HPFQr5bDZbKpWy2WyhUCyXy5lMplQmPyUgXTseEQWyVCplMhmHw1EsFgvFQjabzeWy1WqlVCrmcrlMJpNJpwqFYqm+C7g9l4g5kIqAkBrRdSDRR+uBxYVP//jf186e/r3Itn6RArKtlTQuTBTIxtlaSoHvahDm5kBSFhQRlgcyl82Ojk5o9Ca1VjUzpxoeGB0cGlBpNAs6ndVmPXnq1KRqgVmdin6VWrJWyiWPy+H1B5xuV3Dgeu5Lf5J6eofFZAoG/VqN2uV2qbU6g9GgVmsSyaV0Jj12Y9hgWBwaHhmfnjUY9E6XY2Z2TrWwqNcv6hZ1c7PzyUz9wo/f617UL2o0Go3O4LBb3L4g+qIokNlMymqzub0+j8dZXzcaTcODfSrtwsTE+I3JGbvN4va45+fmNFqtWqPRLy7cGBszmgzz6vo7TaZnJk1mo93pjsejgWBoZmpyVqWxWExOj79Wq+UyqQWdzmazDI8MeUMxNEMEyGp5ZKhfp9cN37gxNjWr0aiMBp1Gq7ZaLQajMZaoX2oOeF0zcyqXy2m1Wk1mk9lmn5gYVWu1E+OjolqBqAAAIABJREFU2oVFi83qDYRCoaDHZVvQ64yGxf6BfrVGM6tSazXz2oUFlUplMlsr5Ie6OJCKgJAaIQ9kMhF9cvujr7/x1uDIiFGvP3b49MEjR86f//jI4aNTM5PP73n5fN+gKIFMpBSQpULeqNPZXC77+Y/S//GPcj96wG/UO51Og1G/oFswWy1mi3lBp9MbDPFEMp/Pzc/NaHXa4eHhyelZq9Vis9smJyen5zVGo1Gr1c7MzEbi8VK57HJatQtag9G4fMXI4PHffJRZFMho2K/TG8wWi06n8/n9Lrdbo56fmZsdGx8fGZswGhctNpvT6TSZTS6Xy2G3qjRqq926oFucU83Nzc043W6vzxsMBe0O++T0zMzsrMvjDoYj6UwmtRR3e7x2u3VOpYqSc2ARIGuVudlptUY1PDIyPjWj1y/o9It6w6LJYl5Y1Ht9gXK5HAn5VAuL/kAgm0k7HVat3qTTaWx2240bw5NT0xNT0waTyR/we1x29YLGbDbOzs8bjcZ59bxKNadSz+uNBpOFA0ndX3lheSALxbLL5vR5A8l0/bTKbndYHY4Fnd7ldms12mv9A3NaPcOe6FcpIKvVSv13ntzO2te/VL7nK8WlpWKpuHzGWCoWC5VKpc5PqQTnkIVi/dyqVKrfQVl+qLL+vX5qV4TfzKofL5XLpVKpUKhvs6sfrp9v1SNxahIFslKpFAv1v1wuV8++nK+0XG+hUK8RIguFfD5f378Hp4718pcNyBfyufpZbqFYqhdTT5TPwyaYcrkMefL5PD0HFgOy/lRapVKB9IXlitD4+gk2mLFc/fLp63JouaX1vsnnk8lkdrnq5VPQzyxZVgOVKBaKRbqC5TOk4ohsCKQoYCuNlAKykM9Yrl1JfuXPU1/6E+voDYvFZrNbpybH9EaT3rAQjiWrlYrLYRmfGDcY9FqjVatVWezO+s+t5bIGvc5ks83MzBr1epVOv7i4qNEuuFxO3aJhemL0xti40Wiy2JyGxQWHxyMPZDQc0GlViwbDxOS02WrWm8xGvc5gMI6M3BidnHE4HFabbV6j0sxPXR0amJtXLSwuOp0OtUarVs/39fdPzcwO3hidmZ0yWYxzc7Oj4+NT09PaRX21Wg35PBPTE1MzMyOjY5/9NtayKaJAZlKJYCg4Pzer0elnpydm5+a1OrXHH6hWq/l8xmw0GY2L82qVVqvuu359YnJ8YmZ2ZnZmenZ2YGhgdm5+bn7eYjP39fer1Op5jVqlmpuenrHYrJqFBbO5ro9Bb5hTq+n7ijiQHMga3RhQdTuKf3Fb5d/9m0D/Na/X53S6XB6P1WqunybZLIFQqFRfp/nNVovLZTdabXaH3esPLC2l8vmc3W61OR1OhzMcicYTcZ/fbzKZ44klr8/vctrtdnsylS4U8m6XwxtocA4Zi4atFqPN4XC7nB6vx2Z3ZupvrPXUS3G50+lUOpU0Wcw+t91ot3k83kgknEyn4/GYy+WYm9eYzGbNgi4Y9Hu8LpvFbHc6g8GAx+fLZDKJaMRkMZhM9RsZsaWbmwdEgKxWQqFQLBZxOF315bGpftclGouGw8FCuZLPZwPBUCjktzvsHrfLYjb7Az6H2+MP+J0ux6Jx0Wa3R6JRv9+7sKB1OKx2l8vusDkcdrfHbXfYbDar1Wo1GI0Oh7NEds9yIDmQBMhouLbl3vym/yV+/uxSamn57kL92n48Hk8uLcVi0QL9WWKc41YXEF2y5rKZRDKRSqWSS6lcLlv/HZJ0aimV7tzObzEgq8u3WDKhUCiRTGaymVw2u7S0lC+0bR+vUDkO5AYFslAUbJ2LRmrf+1bx3/6riace7x8YXNTrHE7nol6n0+tHRgY1uoXJifFQ4uaUInSm1mJEgbRbDcPDA9MzM+NT0xaLcVal0qimJ2fncvlOwSAK5KJ2fmpmemBgcGpOVd8aYNIPjQy7fYHWWtpMLg5krwGZz1vMZofLMz+v0hmtKz11xPTsOWRqqfaD+z79l/9N9fWXggFf/ZZGOhVLJIvFfDad8vn9wWAgHApmCjcvxjTjXs2kEQUyHg3bHHZ/MOTxeGKxaDAUDIaCfn+g1IEpGowUAbJWX7KGwmG32xUIhTLpVDga8/p82Xbs4JVShgPZY0Dm8sVIwOv0+IdHboxNzubyLf4w1mdAViq1SqWUSld3/PzTP/wXtccfqeXbsF9cyttE40WBFE3Z0UgxIDtaoXjhHMheAzJXiMXikWgiEk1EY4nVAun31nTa2j8/VPvX/0P93268wIIDSdHkQPYYkLjmXGXgsxnyo5Of3vZ/ffov/+va3V+uv2Bq+X2Q+WKpUP+Uc4US3URC/aaNYVEgK9VqefmeZ+eu4jBNEJshq8s6lIqluhT05gSTt41fOZAbG8h/+t6nf/CF2v/839be3V/L1C/Y5DLZC8OaKa392sTisT6VP96Blz6VyzWdpjYyAJ/q7HT59Imq3UJf4RGKxCYXnd5I0uT0F8vVNnq8VFGiQF4fnu+fMY/Nm473zXsiS2vwsksO5AYGMp/79N//4af/+r+v3P/Nqmq2trx7Jh6Nvnjs+rkB3am+mV1H+/3JDpxSVqs1p/3TP/8Pn/7vf/Dp//YHtRd3lT86xQDpcrreuTA1vmBTG50GV2gNSBADsvbS+xdOXZ45OTD76kdjVn9sDczgQPYYkLlMdvTqqGpx8cL5Cxev9E1M3jh38aLN4lvpCra+ZHXYaruerFnNJfIgValUTKQyVldIa/errL5Qsq0zZLVai0ZqZ0/V7vjjT/+n/6q+VP7GX1YzaeFLrtKZ3KLdb/ZESqVKNpunt86lprhVxosCGY4t2b0Rrc2nsfnDySzd47bK6qSycyB7DMhEPPLBe6fOXLm668mde/e+Mjox43C5QsHESoEsFErVchneC0x36kg5ShviM+na6eO1u7/86R/+j5/+3/9H7bGf1f5xc81iEj2HbEN1KyxCFMgVltGG5BzIHgNyxeBJvl5AsDGgDe4kXYTN8ulff7E+K/6r/6724q5aOlW/omuzwI+KCGdI6YI6dYQDqTgSFGLQ2m8uL5fLy29mrbT/L5utDffXtn7/0//1X1T/4rbKC89UfB6mlnK5jEAyh9bya7FYgveylkrltayXqYvPkArB8KYZaw8kPGRUqVTb+SmXK6rZ6gN/V/s//7D2N3fUPjpZ8bgqpfp9FMGnUv3ko6p6rhKLdfdTffbX1dTSMiFCI9cuBtcA/L2sN6noYmhtgKR7WdED2hCoVutvNPe4ak/vqP3Rv6l98T/Wzn1YK+QblOxy1F5+vr6U7e7n9ZcU9ZuzHMguYnizankgs9mcy+1LplJLS+nkUiocjjhd3nA07vb4kulc82eYdC9rA1qaP1yt1syG2s4dtb/4T7Uffqd27kz9XJH/taoAB/ImFV0MyQMZ8bl+9pPth44cP3Pq5Omz5+1229igdl6l2vnM07MGWzeBTCZqL++u/fEf1R76fm16vJZIKOqn3VqFopv5OJBdxPBm1fJAJqLRw2++Mjg6MTk1efVSv9fnHhtcmJ2be//QobE5XReArFRqkXDt0rnaN/+qtuXe+g/Ukcdtu+nOvV83B/ImFV0MsUAGgvl8sUA+4UAglcqEwtFYLOH3BdwubygUTSaW4vEUTSYfzud/71UuLXpvNlP/lcif/VPtmSdqE6O1XAe29bRo2XrIxoHsIoY3q6ZAhmdn85u/WX7k4fIj29r8eegH1UvnW3fbSqV2Y6j25T+tvfK7WihYK7fnNcGt27Mec3Igb1LRxRAFMjrYF3j3nfevaN+73OZP/8fDxdMnVuzG1Wptaak2NV7bt7eOYqD+gAj/65ACHMguYnizagZI5/4DX3vszF8/erq9n13PnsidPLYyT6pUarNTtbffqPVdrjntsBl9ZSXw1CtRgAN5k4ouhhoA+avT33jyo7sf//BrOz78+o4Pv/rYmb/d8eHXdpy5+4mPvvqrFUC7MiDL5VowUHv79drlTxR1p24l7t17aTmQXcTwZtXyQH5n95UxtfvskPbxQ+MvHBn73gtXf3foxs8ODJ0YMj55oK/5WbRZIMulms9b06pq0xO1pTb8+FzvYdE9izmQN6noYkgeyG889cmBT1S7j40+emDwoZevP/Rq/+5Do4+8OfCbQ2PbX7nSZiAz6ZrJUJ8bM2l+U3HtweRAdhHDm1XLA9k8cvIpG8yQ1Wotm6kl4mvvhbxGVIADeZOKLoaUAuQaPB6PrscDYgpwILuI4c2qGSCj779rcsfa/vHMaSsffiDmBjxOKQpwIG9S0cUQBTKs16d2/7b02kul1/e2+fPKC/X36PA/BSvAgewihjerpkAGQ+FAMJQvkLchF0rxxFIiuRQIhoKhSI4eknw5QFm4x7UjT3so2Ll70TQO5E0quhiSBzIRCRw5evTilWvDI8PDw8NLmaIQtmZiOJDKR5QD2UUMb1YtD2ShUJqdnjCZrSaz2WA0Z3IcSOWT1aKFHMibVHQx1ADIYjmVzmSy+Uw2l87kfm81y5esLXq+QrNxILuI4c2qGwLZzIq0YRq+ZFUohcQsDuRNKroY4kASn9zQQQ5kFzG8WbU8kJlUZmFBq9Hqx0anVNoFl9sXCIR8ft+NsfH4UrffqbOh8Wl/4zmQN6noYkgeyGw69cyvt7+8781nf/vKteG+o0eOvbXvjQtXru978w3VQlffqdN+h9zoJXIgu4jhzarlgcxl0+Pj0xNTMyP943qzRTWrGhocVi0szsyrg+FYw1NHTMDPIZWPOwfyJhVdDMkDiUStOnDzpwSU75ob00IOZBcxvFn12gDJZ0jlQ86BvElFF0McSOWjsjYWciC7iOHNqjmQa+Puyq+FA3mTii6G5IHMZrJqjcZitV+7MqjW6dRandFgsljtA0NDgXCy+RNLvmTlQHbRyXupankg08nE+++8d/b8hWd/+8rpj88cP37ytZdeOnvp8tNPPz2/YOdAKh+z5i3kM6QiuJUHMpcvzo7PjI5PjQ1OmuwunUbX3zeo1iwsmqyhcJQD2by7Kz8lB7IHgGweOfmUfMnKgVSEuyvfCPkZUh6z5o9yIDmQymdBERZyIJWPytpYyJesHMi18TReS1MKcCB7AMh8vujzuGw2l9dp1Du8dqtlZGzKYrNevn5Nr7eMDI8u6PRXLl2emp7PZAsyK1i+ZG2Kia4m4kD2AJDpVPLa1fOD/YPnzhw6een6a3tefuSff3V9eHReo5kfn3nnwHv9166eOnPmysBwmgPZVZxWXzkHsgeAzOdyZrPF5nBZzGaT1e71BvzeQCy+lMuXcrm83xeKRaNmi9Xu8mbzcq/b4TPk6oHpdAkcyB4AUmYVuqJDHMhO47T68jmQHMjVexEvoW0KcCA5kG1zJl7Q6hXgQPYGkPlCCT65fDGbK2SzhVy+mJM9YxSuZvmSdfXAdLoEDmQPAJldio+OT41Mz165eOHsx2dPnzl14O2DF/qGLl4fMDv9QvCkYjiQncZp9eVzIHsAyGQ8vv/VV85fuTo3PXXt4uDht97e+tBD10cn3j92fEZrksJPGM+BXD0wnS6BA9kDQOZyWYvF5vUH7XaH2exw2Jy6RZ3bGzCazP4gf9qj04ysafkcyB4AUjjXtRbDZ8g1ZaulyjiQHMiWHIdn6owCHMgNBGShyF8D2RmM2lcqB3IDAcmXrO0Dp1MlcSB7AMhEyPfGG2/2DQweO3li7779n1y4cuzYB7Nq3fSN2Vgi1fz5JAeyUxi1r1wOZA8AGQ/6X3x535WrVw8fOX7ovWMnT5/+8OS5KwMjV873cyDbx4IiSuJA9gCQhc+36eTzn+3XyRdKueXI5qfHQrHMZ0hFMCdrBAeyF4Bcyc8kyyDKgZRlQREHOZAcSEU4IjcCFOBAciA5CwpSgAPZA0Dm88XkUiqVziaX0kupbL5QllmXyhziS1YFkSdhCgeyB4BMLyU+OX9erdH29/VPTs2kcyUZ6mQOcSAlKFBQNAeyB4Bcigb7BkdUGt3wyMjkrGqlj0EiohxIBZEnYQoHUhFABgKBSqWysLBw4eLFYCgcCIbyhZvTYC6XjyeWYvFkJBqPxZP0EMLWTIADKUGBgqJLpVIgEJBxyi/IHOOH2qVAJBJJJpNSQDYDW1NpCnwvq4LYEzUlmUxGIhEZv+JAyojTtkOZTMbv9/t8vqHhYeEM2RRsTdyr5DOkKAMKiSyXy8lk0u/3ZzIZGcfiQMqI07ZDuVwuk8lEIpFAIODjfxtSgUAgEIlEMplMLpeTcSwOpIw4/BBXYK0V4ECuteK8Pq6AjAIcSBlx+CGuwForwIFca8V5fVwBGQU4kDLi8ENcgbVWgAO51orz+rgCMgpwIGXE4Ye4AmutAAdyrRXn9XEFZBTgQMqIww9xBdZaAQ7kWivO6+MKyCjAgZQRhx/iCqy1AhzItVac18cVkFGAAykjDj/EFVhrBTiQa604r48rIKMAB1JGHH6IK7DWCnAg11pxXh9XQEYBDqSMOG07xB9Q3pDPJP9eo/kDym3DafUFwSs84vF4LBZLiP1Fo9HMOvpLp9NSrUn//p9UsvUXn06n4/E4f4XH6mlqQwmRSCQej8NbPEqlUrlcTiVjBoPRYjFodYupdCYUCq0PF7TZrB+d+ej0R+dHxsY/OvuJWqWan5m+fLlvbnrm3XfeOXTw5NTkyAdH3jtz6uMPPzhz+Mjh8ZEbZz881z88vD6a37AVsViMv+SqDUStsohAIACTRjgcDgQCRqPRbjGeOXN6ZOza+U8ux+LJYDDYsC97IoFGq9n97EvPv/LGpWvX39h3YF6jDXhc4zfUmumZt/Yf2PvcG32D1+fmZqcmbzz1xC9+8fhv+q9ce/yXj+9544D0nNoT7W7WyFQqxV8DuUqa2pDd5/NBj4XD4VQqVR8mw0G1WmW1m212ZzqTWTdA+ny+S9eu9PUPaxZ0NqvdZDUbFnWTEzOq+XmVSn1jaES7oNZoVLoF7Y2RwevXBhw2W9/1ayMT0ynJRW6zvt4T6dLptM/nk3EpflFHRpy2HUIgA4GAX+KvJ/yJG7lKBTiQbYNqNQX5fL50JsM/XIEUnyFXA1K78vp8vnK5wj9cgVKpxJes7cKq9XJ8Pp9C3p/NzeiuApVKhQPZOkjtysmB7C4GyqmdA9kuplZVDgdSOUh01xIO5KpAaldmDmR3MVBO7RzIdjG1qnJaBrJarcZjsVAonEqno9FoPJFILSWj0Wg+X0jEYsmlVCGXymSyuXzB5/MGg8F4PJ6IJ5ZSqWq1qhwv5JagAhzIVYHUrswtA5nPZV975bXdr73/ydDohQtX5tULDpNpfHQynog989jjL+19d+iTwxcvXx283vfUE088+9zz1z4+9+6+g0dOnigWi+gEPKAcBTiQ7WJqVeW0DGSxkHvv3Xd2v370+tjYlcuXZubUPpdrccEQ9LsPvvnWoUMn+y8dHRqfMtvsb7/+3NvvHZ0ZHHr/4OGjZ84USyXleCG3BBXgQK4KpHZlbhnISqXi9rgdTk88kUguJSOxWDQc9vsDsVgsGAoFg6FkPBCJxpPJJb/X5fP6E7GY1+vzB4MVvmRFCJQU4EC2i6lVldMykEryJW5LGxTgQK4KpHZlbhnIarWaSadzudxSMhGPx30ej9frNZnNbrfLbrcbDIZQKOwPBCLhkMls8Xi9drvN6/NZrRZ/IOC0OwJ+j8FkcbvdHpfT5fFGI5FwJBYO+kwWWyQcCocj+XyhWq3mc1m/P5BMJs1Gg9vr8bg9fr/fZrN5vL5QKJRIJBLxeDQaC4eCXq8/mUxEIpFQMBQIBH1et81u9/kDTqcjGk/EouFEMulw2P3+gMVsttYN8IUj0VDA5/F63U6HzWZPZ7K1Wi0Zj5qMpmgs6nA4vT6v2Wz2er0ejycSjQX8/lD9mRhfKByBS1P5XH5W79A7An0zpjG9O53JxVMZuy8SjC4lU2mLO+Twhb2BSDiRUf6lLA5ku5haVTktA1mpVKxWi8PlMi4umC02w4LWaraOjAxPzMxrVbNXr17VLRpVarXFZBydmDSYTEaD3mI2DY+MmK22uZlpjXrm7LnzYxPTZqPB6fYlE/FUNm/Qzl651qeamzGZrcml+vXYeDTidNlNJvPwYL/ZrB8bn17QahYWtFqNRqvTaXUGs8kwO6+aHh++2jeg0+lsVotqfs5gNE1Pjl66ckVvdlgsZo/LqVbN6fX6K9eu3xgdGxrs7x8ZnZ4c1y0uLqhmxicnNSrVzJwqFIlVq1Wv0zbQ3z+nVg30XZ+Ynr165dL8/Pz4+IR2Ua9Rz8+qtGM3hmfm1elMrlarpWKRXx+6fvTq7HNHrr1xftpg854f150dUc3oXalUpn/aMDavPzc4P6i2lytKv7bMgVwVSO3KvBog3S5nIBDwuJxuT31DbDQcCodCDqfLYbcbjUaP3+9yOkPhaDyeCIVCyeRSKBTy+/3BUCgQCITqU1kgHo+nMtlMasnr9bg93mg0GovF6g/m+f2RaB2PXC4bCfsTS9mAz+cPBEKhoMfj8QdD0Uh9+nW53NlcNhgKLyUT4XBkaSldrVTqj9lGIqFQOBwOp9NLmfrW+Wwhl81k0lar1V2f66KQJRgMRoL1Z1xS6UwkUp9CK5XKUiLmcrtC4XA0EgkEAna7PRAIJuKxaCwRCYeD9YYkkvGYxx+qT6epdP+8VecImt0hiy+SL5TiyXQqm8/mC8Fo3BNK+MJxdzDmCSeVf+bMgWwXU6sqp2Ug23DWwotQkgIcyFWB1K7MHEglQdFNWziQ7WJqVeVwILsJgZLq5kCuCqR2ZeZAKgmKbtrCgWwXU6sqhwPZTQiUVDcHclUgtStzy0BWq9VSqVQs8o+yFCiVyq3d8+RAtoupVZXTMpBKGty5LW1QgAO5KpDalZkD2QZfXhdFcCDbxdSqyuFArgua2tAIDuSqQGpXZg5k874cXcqNaHwD814lf9TWSKlcab5RmJID2S6mVlVO60BWq7VkohaNtP5JLaE39ERgxhj6xq8v/+Wj55X8efzgZCbXyiPgHMhVgdSuzK0Dmc3U3jtQu3qh9c+rL9SqrYzl3aKXA9kur+PlSCrQOpCppdrpE7V8vlZo6ZPP13b8c61S7hZdLdS7eiC/+dSVzbuub3m+/3u7+76/u+87y+G7f3N5y/P99zx5+VtPXr7niUurnH75DCnp6z1xYBVApmpnT1eq1WAkWa1WK5WyxuQ2usNGm29i0emPJH3hRCSRWrT7dHa/0R3SOUNWT1ht8SYyhc9geOKRjQbko+9Mjy16zowYX/1Q+/TByR+8MPBPvxv4/v6JT8ZsvzupOXhK/ci+G3/z2IXVMMmB7AnuJI1cJZCBSOL4palgNFnK5/YcunJ+ZOHktannjg1cHdOeHZgfmTefujp56trUpUnDlRnjpSntwdODlmB6wwJ5/+6B186qHj84/uALAw++OPiPLw39+OXhh14f/fW7U9v3Tfxm/9iDLw789a9WdY7KgZT09Z44sEoga7Wa1V1/MrBSKg7NmQemjZ9MLF6fNY1prddmjOM6ZygYmdBa9e6wxRWcNTlHVOZAMr9hgVzN1NdkXg5kT3AnaeTqgWzhZIwD2SRdLSTjQEr6ek8caB3IpaXaCztr1y+3/tn2w1qll66ymj2JnUdmnnh3ssHn4MTj74w/cXCiQbJ3J+tpmkn27uTjTac8dMWQK7RyqYzf9lAEsC0DWS2Xq1p1dWyk9Y/FVFXen8yEX6lUik38FQqFXC5XKBQaps0v/zVMViwW8/l8MwUWi8VSqcQ3lysCrdaMaB3IanVd/qaijDcDkIVCYZmOguhfsVhkgFxOVicP0ucJqBRI4E2qTATy8wT1WpYt+axkpJoD2RoISsm1GiCVN721xyKpSRKATKWS49OTEyNDExNzA6MTiUjsxlg94o03X702MJhOpwVA5i36uRsTkxqV+uL5ay6PD+H5HMhCyOe5fPnq3Oz85I2JvtFxo0l37er12YGRY8ePTc3O4wxZKOTNJn3fhWtq1fzx9987f63v0qmPPvzg4sdnDh86csQbCPIZUilctWxHy0BKee06jgcg87nsjZGRsatXx8cmTn9ycXRw+ODhY5NTk2+89lL/yEQqnWGAzOdzN4avnzt/7sOPz544di6WSLBAFgrq2fFHf7H91f3v3RgZHRgf7/vk0tFjxy4fPb3vzX3XRsZvApnPGXWqo4feP3/+49dffO6lA2+fP/TB8QOfnPng4Asvver1BziQLYOglIwcyOZHEAAyl80GA0G/xx0KRXyhUDabtdttbqfbZNZ73N5crr40peeQhUK+/hbocNDtcWk02lAkygJZLMbjMbPZZLXbk8k6rgGv1x8Mht0+vUHv9vkRyGKxmIhFvV6Py+Va0MzPqDS6ObV6Rme1mTTahcRSigOpFK5atmOVQPqcNp3eEI74/dFoNOxLRAOBYMRiMGgW9eWWnjloHo/WUnoDkQm90xeKq6web/Sz3e3FYjGTyTT8WS4AEnGSCjBASiUDzPL5vEwCPITnkBgDATiTpJH8HLJlFhSRcZVAuqyL586d/+TS+Y8+vnDt0qkLHx3dv3//2bPnDh44uGhytMZMJ3NVT14a3X302oEzA0++e/WGzg11pVKpYDCYTn++hUjCgkqlgtdR4PRP6t9MNpuTOkbic7lccwnz2Wwu10yJ+XyhWJS5LiXRsno0v+2xHoBMJKL+QNDlcUej8UjQ43bajUaTyWg0We3JpZRM93fpUNXuDmgsboc3OGfxBWKfEVgqlfL5fKnR7+Q1D2Q6nU1n81355AocSEWQ1aIRq5whu8RVd6ptfsmazuTS2UImV1z7T77A70O2yIIisnEgm4ebATISDmq1ao/Xs6BeWDRa8USuUChwIBXh3L1oBAeyZSAXVNPP/Oax8yPjzz35zIuvHeRA9qL/K87mloFcr+9llbkiwsyQ81M3fvfsb09e6Tt5+IMzZy9yIBXn3L2gThqBAAAIm0lEQVRoUMtANj+xrJuUDJD1LXTLf8y9B75k7UUQlGIzB7L58YIBEqdEJsCBVIpz96IdHMjmgSyXy5lsruEnnc2m+FXWXoRBCTavEshkPDYzNmU2L86pVcYFY7HUypN4zSOx+pROb3Bi0akyugdUFkcwAQXm8/lUKlUofP6yH4lqypXK2t/GWGmN/LaHErBq3YZVAhn0ug+/+/61S6cPf3jGpVfg1hyGrcr+D67tev/yiYujvzs5NGP2weFsNhuPx3O5HJOa+cqBbN3PeM4mFVglkLFwMBSOeV32kRvDeq2hWCwxTqywr1Wr0zesNi9aPdfnLLbAZzNkoVBoZi8rB7JJp+LJWldglUDCTQL6GKLCCBQxB6wVOdAoigPZup/xnE0qsEogG/nwujrOgWzSqXiy1hXgQDY/ZnAgW/cznrNJBVoGslqtLv98MnMTrue/yuzU4UA26VQ8WesKtAxk8xPLuknJgWzdz3jOJhXgQDY/XnAgm3Qqnqx1BTiQHEhQgL8xoHWK2phzlUCmknG1Su31e612m8vp8nk9ZpPZ7XZNTc2GYsnmfX2tUlad3pDK6nP4wmqrzxf77J0GTb4xgM+QbXQ8XpS4AqsEUjUx9Nijvz7+wQc3JiYnb4xcu3Zpz7MvnTv/8fZf7egbnV4rzJqvp3ry0o3H3zr/7tmhp4/0TZk+26mTTqfD4XAmk5EviAMp7kM8to0KrBLIpXBofHTKsGgpl8vlYt4fDIQ9kUg0ND0363AH5P27G0erdpdfZ/XYPYEpg5vvZaVdwJesbcSq9aJWCSTt0XUf5jNk637GczapAAey+XGEA9mkU/FkrSvQMpB0/+p6CsvwyYFs3c94ziYVWA2QpXJ5/X34Th0pz/mC1AEe30YFVgPkepoYaVukJkk+Q7bR8XhR4gq0DKSU167jeA6kuA/x2DYqwIFsfgThQLbR8XhR4gqsEshoPOIPBNwej9VqnZqbV6lV01PjepNRo9UEQvHmfX3NUgZCMa3N7/BFJg1Od/izvUT8jQH8x3bE8fj/27uT37aNKA7Af3KBIkB7qIsUaM/ptYfGiZtDF7hB2kOdODYad7E2W7bWSNZGSlyHu0hqISkUqoDYkCWZHQ0YN/wJPojLe8Q8v0+kDJqT/NotQWYLmf0Xz5/9+P2T3d2PPvn8+eGrg4Mf9va++fjBg8u2mBiz2AcKn71489XTl3u//vHF08OTG7NfKYpy5+xXOEMm35+pO+KWIE3HbLbajebbaql8cPj6NJ89/ev3s2Ihn89LihbbSWI7Rt2+fNnk23250BiI2vW9rL7v3zn7FUCmjkfyA94SZGKS7sOBADL5/kzdEQEyPnWATB2P5AcMkAC5qABuLk9e34ojUoNM4exXOEOuaCCsYlsBapDxTywfzJ4Aybb3kG1FBQAy/ucFQK5oIKxiWwGABMhFBfAdkq0symxbgiSS8PrgVfHiIpvJHB8feaNJ/P5+L3t2eOmk1C5dDU5K7Z5yfafOcDjE7FeCIGxoI/y3x4biMNu0Jch67fzTz3YeP/n20dePHu48lLR7+GCrm/Cjxz8ff7n723e/vNnZfflntb/Y5rqupmme593c9fZ7XLIyazskWleBLUE2G5Wf9vePjo8Kl5enmYzj3zHF4u0uT3ZNdNUd/F1uVVv9k1K3J1+fITH7FS5Z1xlJdP2WIJPl9J6PhjNkoq2ZzoMBZHzlAJlOI4mOGiABclEBXLImCm/dwahBzme/mk7/95Nd3RoAnqmzrlXwV9Z1lWG5nhpk/BPLB7MnLllZdh5yrawAQMb/vADIlS2ElSwrAJAAuagAvkOydEWdCyABEiCp+bAPBEiABEj2rqgzAiRAAiQ1H/aBAAmQAMneFXVGgARIgKTmwz4QIAESINm7os4IkAAJkNR82AcCJEACJHtX1BkBEiABkpoP+0CABEiAZO+KOiNAAiRAUvNhHwiQAAmQ7F1RZwRIgARIaj7sAwESIAGSvSvqjAAJkABJzYd9IEACJECyd0WdESABEiCp+bAPBMj4IOcz8AXhPf8JwnDDc7o2DBZPDGCviyIjQG7o0VRtAkgKPuxDADK+uslkoqiyruuKLMsKIapMNCOazaIw4HmO5zlJEnl+YJqmoqhD2+50ekRVDdOyLIvouud5PMdJsmIYuq7rwmAgCIKsSBzft2zbNHTbcXRdN3TDdpzxZBJFM9/3et2uSjRVkQ3TVFVVEAZ8vy8IYp/neb6vadpAEPtct8fx48lWMx0BJHtdFBkBMj5I2zJL5WKtXi+c5XOFQj6XyxXOR6NRGEwvioVsJstxXI/jPc+z7aGlybn8Wa1S4YSBIsvtTqfX4y7Oi28brWajznG9eq1arVYqlXImmx8MBvVatV6vXJargiB0uh1VJWEY2Zaez+dqzWY2mylX5lslWWi1Ou1Wq1ouFfJnjatWtVo/y+eKxZK33cQqAEnBh30IQMYHOZvNfG8oy4ptO6471HVj6Dij0Wixfjh0R+NxGASqooiiqBIyGo1d1yVEUYnmeUPDtH3f91zHMAxZlk3L1ohCCHEs0/NHwTQIgjAIgiiKwjAcj8dRFAXB1HEs03Fsxxk683DHtj1vNPZ9z/N8z7NMU5Ik23YMXZ9Mp/9pLEs7AyR7XRQZAXKpL1O7CJAUfNiHAGRqBS4NHCDZ66LICJBLfZnaRYCk4MM+BCBTK3Bp4ADJXhdFRoBc6svULgIkBR/2IQCZWoFLAwdI9rooMgLkUl+mdhEgKfiwDwHI1ApcGjhAstdFkREgl/oytYsAScGHfYgkSUEQpLYLMfB3FZhMJpIkbegwTGm+oTjMNhFCLMt691vBm9RWYH4HPCEbGgsgNxSH2SbXdUVRtCwL58nUUgyCwLIsURRd193QWAC5oTjMNvm+/+8N0ESSJAGvVFZAkiRCiOu683vf178Acn1tsAUVSLwC/wApdGBbMZ2f9wAAAABJRU5ErkJggg==;" vertex="1" parent="77e6c97f196da883-7">
          <mxGeometry x="71.75" y="40" width="108.25" height="169.14" as="geometry" />
        </mxCell>
        <mxCell id="bgTZv6M7OsNh2IvBG2EK-2" value="" style="edgeStyle=orthogonalEdgeStyle;rounded=0;orthogonalLoop=1;jettySize=auto;html=1;" edge="1" parent="77e6c97f196da883-1" source="77e6c97f196da883-11" target="bgTZv6M7OsNh2IvBG2EK-1">
          <mxGeometry relative="1" as="geometry" />
        </mxCell>
        <mxCell id="bgTZv6M7OsNh2IvBG2EK-4" value="" style="edgeStyle=orthogonalEdgeStyle;rounded=0;orthogonalLoop=1;jettySize=auto;html=1;" edge="1" parent="77e6c97f196da883-1" source="bgTZv6M7OsNh2IvBG2EK-1" target="bgTZv6M7OsNh2IvBG2EK-3">
          <mxGeometry relative="1" as="geometry" />
        </mxCell>
        <mxCell id="bgTZv6M7OsNh2IvBG2EK-6" value="" style="edgeStyle=orthogonalEdgeStyle;rounded=0;orthogonalLoop=1;jettySize=auto;html=1;" edge="1" parent="77e6c97f196da883-1" source="bgTZv6M7OsNh2IvBG2EK-3" target="bgTZv6M7OsNh2IvBG2EK-5">
          <mxGeometry relative="1" as="geometry" />
        </mxCell>
        <mxCell id="bgTZv6M7OsNh2IvBG2EK-8" value="" style="edgeStyle=orthogonalEdgeStyle;rounded=0;orthogonalLoop=1;jettySize=auto;html=1;" edge="1" parent="77e6c97f196da883-1" source="bgTZv6M7OsNh2IvBG2EK-5">
          <mxGeometry relative="1" as="geometry">
            <mxPoint x="876.25" y="115" as="targetPoint" />
          </mxGeometry>
        </mxCell>
      </root>
    </mxGraphModel>
  </diagram>
</mxfile>
